<mxfile host="app.diagrams.net" modified="2024-02-15T14:53:33.017Z" agent="Mozilla/5.0 (Windows NT 10.0; Win64; x64) AppleWebKit/537.36 (KHTML, like Gecko) Chrome/121.0.0.0 Safari/537.36" etag="B9Ah8vw_yarB9_bNafCz" version="23.1.2" type="device">
  <diagram name="ansible-rds" id="9UDiCTEP8u7YIqMRSlAj">
    <mxGraphModel dx="1764" dy="1009" grid="1" gridSize="10" guides="1" tooltips="1" connect="1" arrows="1" fold="1" page="1" pageScale="1" pageWidth="850" pageHeight="1100" math="0" shadow="0">
      <root>
        <mxCell id="0" />
        <mxCell id="1" parent="0" />
        <mxCell id="x525QCLRxMLkq9dEeG_U-2" value="" style="rounded=0;whiteSpace=wrap;html=1;fillColor=#f5f5f5;fontColor=#333333;strokeColor=#666666;" vertex="1" parent="1">
          <mxGeometry x="125" y="220" width="1190" height="601" as="geometry" />
        </mxCell>
        <mxCell id="x525QCLRxMLkq9dEeG_U-15" value="" style="whiteSpace=wrap;html=1;aspect=fixed;dashed=1;" vertex="1" parent="1">
          <mxGeometry x="784.33" y="259" width="291.34" height="291.34" as="geometry" />
        </mxCell>
        <mxCell id="x525QCLRxMLkq9dEeG_U-13" value="VPC" style="sketch=0;outlineConnect=0;gradientColor=none;html=1;whiteSpace=wrap;fontSize=12;fontStyle=0;shape=mxgraph.aws4.group;grIcon=mxgraph.aws4.group_vpc;strokeColor=#879196;fillColor=none;verticalAlign=top;align=left;spacingLeft=30;fontColor=#879196;dashed=0;" vertex="1" parent="1">
          <mxGeometry x="818.75" y="288.74" width="222.5" height="231.81" as="geometry" />
        </mxCell>
        <mxCell id="x525QCLRxMLkq9dEeG_U-5" value="Oracle RDS Instance" style="outlineConnect=0;dashed=0;verticalLabelPosition=bottom;verticalAlign=top;align=center;html=1;shape=mxgraph.aws3.rds;fillColor=#2E73B8;gradientColor=none;" vertex="1" parent="1">
          <mxGeometry x="894" y="364.14" width="72" height="81" as="geometry" />
        </mxCell>
        <mxCell id="x525QCLRxMLkq9dEeG_U-9" value="" style="outlineConnect=0;dashed=0;verticalLabelPosition=bottom;verticalAlign=top;align=center;html=1;shape=mxgraph.aws3.cloud_2;fillColor=#F58534;gradientColor=none;" vertex="1" parent="1">
          <mxGeometry x="724.33" y="367.15000000000003" width="75" height="75" as="geometry" />
        </mxCell>
        <mxCell id="x525QCLRxMLkq9dEeG_U-16" style="edgeStyle=orthogonalEdgeStyle;rounded=0;orthogonalLoop=1;jettySize=auto;html=1;exitX=1;exitY=0.5;exitDx=0;exitDy=0;" edge="1" parent="1" source="x525QCLRxMLkq9dEeG_U-10" target="x525QCLRxMLkq9dEeG_U-9">
          <mxGeometry relative="1" as="geometry" />
        </mxCell>
        <mxCell id="x525QCLRxMLkq9dEeG_U-10" value="" style="shape=image;verticalLabelPosition=bottom;labelBackgroundColor=default;verticalAlign=top;aspect=fixed;imageAspect=0;image=https://upload.wikimedia.org/wikipedia/commons/thumb/2/24/Ansible_logo.svg/1200px-Ansible_logo.svg.png;" vertex="1" parent="1">
          <mxGeometry x="364.33" y="358.52" width="75" height="92.31" as="geometry" />
        </mxCell>
        <mxCell id="x525QCLRxMLkq9dEeG_U-17" value="" style="shape=image;verticalLabelPosition=bottom;labelBackgroundColor=default;verticalAlign=top;aspect=fixed;imageAspect=0;image=data:image/png,iVBORw0KGgoAAAANSUhEUgAABc4AAAFfCAYAAAB3BV/UAAAgAElEQVR4Aeyd7W9U173vI52/oG9yFV1d5eV9ESk3L9CVorxo1UpHSl7cNlVORBQ1RC1USZqElgRKk5BSSqBJ3BNyQKQhQEMTODkmrk+AhGGwMa6LsXkwJgY/Y3DA2AYbP4wxzmDnd7X23mvvtWf22DPb82TPx9JoxjNrr4fv+szs2d/1m9+6ZzwWE25oAAMwAAMwAAMwAAMwAAMwAAMwAAMwAAMwAAMwAAMwAAM2A/cgBG8GGIABGIABGIABGIABGIABGIABGIABGIABGIABGIABGPAYwDh3Iu7bui/JtYEBou/5BQIMwAAMwAAMwAAMwAAMwAAMwAAMwAAMwAAMwAAMlDgDGOexmCjTvPxwRCqPVmGel/gbglU1b1UNLdACBmAABmAABmAABmAABmAABmAABmAABmCgVBnAOI/F5MTZJss4xzwfke6zDVJ7ol36MNBZVYQBGIABGIABGIABGIABGIABGIABGIABGIABGChRBrJinN+41CkH61uTblVtyalPrrYllztY3ymnr95KDWF/r3z+93r55eYa+f4f/iEv/e207Kq/LFdHsrfik3/zvF9aTiiTOuF2ul2uDGdvXJmtCF2WyrfWynO//ljqS/QNkZlehZon2mWeYAAGYAAGYAAGYAAGYAAGYAAGYAAGYAAGYCCXDGTFOO86dFzueeVo4O3+zael7qY3iVW7g8up462y/WM+A/1GU6P862r7mP/9e2Wc18j3f2f/v+6UV282RMqveX5atv1amdRBtzfkzX3npG8szPj65dTfP5EPq7t8OqanD8Z5ejqFmReOQVsYgAEYgAEYgAEYgAEYgAEYgAEYgAEYgAEYWCgMZNU49xnZY7ek5cBx+R+vHJX/s7tdbjgRzLZxflx2XTYgGb4qVX//p/xfZb6va5A6N+K6V7b98ajcs/q47Ooa8RvBw9flqmHIZ0vw/JnnjnH+VkS6jejuW92nZd/76y1D/Tcfn5NbxmvpjfGy7N+wVp7bedqvV1r1YJynp7HBblq6Uh5dYQAGYAAGYAAGYAAGYAAGYAAGYAAGYAAGYGAhMZA749wyFC/Ltj8o47tB6hyDMdA4t14bs4x2FXn+r3/vtU3f3vPyb8pM/8sF13jPh7j5Mc+DjXNrfGOXZb+VMuVPsq/T/4a6dbNf2pqd9C6BaV2cev9SJ339/dZt0E1pMyKD/V3S5KSHOdV6VW75otr9xvmtm07Z0+3S59Zh9GdsRAZ72+WUU19T580Ao39EBjtb7JQ0zV0y6C6KePXcunlVWk6rMZ2TlqsJCySKjbERudJ6zqpD9dkbj1dHPrigDfSGARiAARiAARiAARiAARiAARiAARiAARiAgdJgIMfGeZ/s2qzSqjRI1ZzGeUzGhy/IS8oo33xOuizDtF1Wq/9fr5eqHESXzwZ57s3zWYzzWExu1e60os7fPHjZiRzvl6qtbySndlm1UT5svCnjsaty6N2gtC9rZVtjTMb766Ts1YDX3/hE6l1ttXFeJmVbN/rbWvUn2X1WteO8MS5UyupVyfW9+G5EurUZf/O0fPhGYpk3ZPdZ/ea6Kaf2lcmLCelqVn98WgZ1O90R+WNiv1dtkUO9ug7u3TnRmnHvcYoWaAEDMAADMAADMAADMAADMAADMAADMAADMBCCgdwa5zcvyC9NIzwWk9QR58oATTTax6RuX7WdO/23x+WtaJd0DftzoOfSNMyteT67cT7eE5E3laHsplzpl6baBmnp7Xcjrm9118iWtWvluTcrpUWZ7YP90vd1pbymjkuMOO9vkaoT7XKl34kKHxuR7qM75Te/Xiury9udN482ztdL2eenpe2miv4ekb7mSvmjMslX7ZRaHTHefloONXdJ36ATIT7SL02flVlm+5Za+7mmT1XKmTLZ366jyO0I9bY+2+zuO7pVnvv1etn8ZZcT+T4ibf+9xa6jTh3TL5H31spzaz+Wqj6nDhXl3tkl3bofIaDPJTPUzUIGDMAADMAADMAADMAADMAADMAADMAADMAADCx8BrJqnD9T3ioH69Xtguz6rF7+329VmpYaKWv2zO70jPPj8qkbUTwkpw/Vy7+qupQJr1K5vH9aDvZqMza3k5A78zxN4/ztiFyZxRyu3aEiuj+Wel0myXCfRZ+xBnuDUtec18a5UZ9Tb98R29DefLQ/9QpV90HLtNdR8vU7Vd92SlWgyd0u+95cK8+9WyV9uu/W/Tn5UJn0Vp+c/jgLA3zgzDKXPg0pByswAAMwAAMwAAMwAAMwAAMwAAMwAAMwAAMwMB8Gsmqca2Nb3//vzY1JBnd6xvk/5WCi2ToyJC2nzsm6t6utDUdVG898dTW1iZslI9E0zv9+9KhcGxjIUptpGufb6/x5w4dv2vm+VbR3/02ptcxpw+iewzi/NWjnE2/q7Je+m+kb5+OtlbL612vlN5+2GOPXOdPP2ZHw7QetKHltnN86/YkV0f7cmjLZfaTFHyXeXyObVWT8nz+38587edJrT1TJNmWoO2Z+95e2Yf/imztl34kUudazNNfzeSNxLB/EMAADMAADMAADMAADMAADMAADMAADMAADMLB4GMiqcb7ulCPMcKesW3dU7lnXIHUJBvjsxnmXvPW6fzPRZNjG5OrXZ+XfVtvlqnQ+7RyYp7kzzZVOcxjnzZ/ZpvPH51yjWpnIdj7wN+Q3b5j5ztMwzscuS+W7zjGvrpfVa4zc42lEnCeljjHzl6/ZKL8x8pBr41zN3ZXTlbLlTd3XN+TNvzXIFTVn2uBXfXlzY/Jtnx73TWmr+Uze1P1dtVHKDrZ7OdBzMO/JzC2eNzxjYy5hAAZgAAZgAAZgAAZgAAZgAAZgAAZgAAZgYG4GcmOcx2Jyo75e/s8rR+X/7utyjV81IbMa521n5V9fOSr/Y0er3JjVEL0lB/+i0rYcl12X5x5kGBBya5qrPs9unLeU/8nI9R2T8U47d/lvdjRIn7FYkG6qlrbPVX3rZVudkWolg1Qt446R/9p/q81KR6T2L8p4L5P9nUbKnIRULabut/rapepje0y/2dcu48N1ssWXw33uebzVfVr2va/ypq+VsmpjHLOyMne9Zj95jF4wAAMwAAMwAAMwAAMwAAMwAAMwAAMwAAMwAAM5M87HY0OOuV0j29rSyHF+85Jse1eZ4dXylpETPRDSsUtS9ofcRZzn3jRX4KU2zgcvOJtxvvaZNDkm+a26nZZhvK3RD62dR9yIOO+NyB+TDGltdBvlLLPZ6UMaEee2kb9edp9V7XfJvvVr5bm3ItJtmtZOFLkZce6fv3b522t2XvMruo61n8kpYyHAX94/Vuu1m3VS9uu18uLfdER6QBmzTzz2LVzNqS96oRcMwAAMwAAMwAAMwAAMwAAMwAAMwAAMwAAMSA6N85iMXz5vp1TZfE5aHHPUjjivkdURvZHo17Jt5z/dzT/9ecu7ZNv79bIt2ipVbX1ytX9AWpq/lrI/V1ubhCZGs2fDFMyPaa7MXse0fvNjOaTzex+plG3vbbTTsby6RSq7DVPYifj+zfYaaevvl77+Lqn//C+yWm2kaW4OGnM211y7VfbVNFj5w+tb+6XpUxWpvV62HFW50fulr/O07Nu60TLjdT7x8ZjeHHStrP7z53LIyqNut/MbZca/rY3yfom8Z0ec/635qlXfldY62f2WnZLFNs775dTRKjnVar+u2myr2Wmln7EizmMx6Tu61Wr/N+9XSq1b7qq0nIjI/hMqf32X1B6sEysfuzXmq9JUbuc8J+LcYIMPMk5mMAADMAADMAADMAADMAADMAADMAADMAADMJBVBnJrnMfGpOXAccvk/rdD9kaetnGuIsuN22+r5f+9f1o+77iRMLhe2WVsBuoes7pa/u2zTrmaSaRyGuDkzzQ3jHNlSBu3F18rk8376qStP9EYvSn1HztGt1X+DVm9PSKRfSr9iT+SvLtaG+p23X88fFXGzZzk6vhXN8qWgzXytw3eRpyucf5+RGr3lcmLlilv1/HiW5/LqZtGn7oj8kcjr7m1AWhdxEq/oo3zqu06t7k3xtVba6Tbnbeb0nLQ31dLi1UbZdsJlYqlXfa5+dF1HW/Im/vOkeM8DZ6zsZBEHQbzaJ7w+Yw2vD9gAAZgAAZgAAZgAAZgAAZgAAZgAAYWLwNZMc5zDsjwDbna3yt19V3S0j8gN0ayPyH5Nc3D9//WTRVt3i+DCZuuJs/BiAz235RbPrNPPaeOvym3XPN6lr6MOeVvGnnMzfr060ntGHWO3LQj3FW7c9bj9M1sQz0e9uqYe9xG24n18D/GJwzAAAzAAAzAAAzAAAzAAAzAAAzAAAzAAAzAQBoMLAzjPI2BJBvH6Ruojee/lvLDEev296NH5drAAPDkWPP5zBfHps82WqEVDMAADMAADMAADMAADMAADMAADMAADMAADGTOAMZ5LGYZ5cowxzTPHCDedGgGAzAAAzAAAzAAAzAAAzAAAzAAAzAAAzAAAzCw2BjAOHciq1WUOZHmvMEX2xuc8cA0DMAADMAADMAADMAADMAADMAADMAADMAADGTOAMY5KUlISwMDMAADMAADMAADMAADMAADMAADMAADMAADMAADMGAwgHFuiMHKS+YrL2iGZjAAAzAAAzAAAzAAAzAAAzAAAzAAAzAAAzAAA4uNAYxzjHNWkmAABmAABmAABmAABmAABmAABmAABmAABmAABmAABgwGMM4NMRbbqgjjYaUPBmAABmAABmAABmAABmAABmAABmAABmAABmAABjJnAOMc45yVJBiAARiAARiAARiAARiAARiAARiAARiAARiAARiAAYMBjHNDDFZeMl95QTM0gwEYgAEYgAEYgAEYgAEYgAEYgAEYgAEYgAEYWGwMYJxjnLOSBAMwAAMwAAMwAAMwAAMwAAMwAAMwAAMwAAMwAAMwYDCAcW6IsdhWRRgPK30wAAMwAAMwAAMwAAMwAAMwAAMwAAMwAAMwAAMwkDkDGOcY56wkwQAMwAAMwAAMwAAMwAAMwAAMwAAMwAAMwAAMwAAMGAxgnBtisPKS+coLmqEZDMAADMAADMAADMAADMAADMAADMAADMAADMDAYmMA4xzjnJUkGIABGIABGIABGIABGIABGIABGIABGIABGIABGIABgwGMc0OMxbYqwnhY6YMBGIABGIABGIABGIABGIABGIABGIABGIABGICBzBnAOMc4ZyUJBmAABmAABmAABmAABmAABmAABmAABmAABmAABmDAYADj3BCDlZfMV17QDM1gAAZgAAZgAAZgAAZgAAZgAAZgAAZgAAZgAAYWGwMY5xjnrCTBAAzAAAzAAAzAAAzAAAzAAAzAAAzAAAzAAAzAAAwYDGCcG2IstlURxsNKHwzAAAzAAAzAAAzAAAzAAAzAAAzAAAzAAAzAAAxkzgDGOcY5K0kwAAMwAAMwAAMwAAMwAAMwAAMwAAMwAAMwAAMwAAMGAxjnhhisvGS+8oJmaAYDMAADMAADMAADMAADMAADMAADMAADMAADMLDYGMA4xzhnJQkGYAAGYAAGYAAGYAAGYAAGYAAGYAAGYAAGYAAGYMBgAOPcEGOxrYowHlb6YAAGYAAGYAAGYAAGYAAGYAAGYAAGYAAGYAAGYCBzBjDOMc5ZSYIBGIABGIABGIABGIABGIABGIABGIABGIABGIABGDAYwDg3xGDlJfOVFzRDMxiAARiAARiAARiAARiAARiAARiAARiAARiAgcXGAMY5xjkrSTAAAzAAAzAAAzAAAzAAAzAAAzAAAzAAAzAAAzAAAwYDGOeGGIttVYTxsNIHAzAAAzAAAzAAAzAAAzAAAzAAAzAAAzAAAzAAA5kzgHGOcc5KEgzAAAzAAAzAAAzAAAzAAAzAAAzAAAzAAAzAAAzAgMEAxrkhBisvma+8oBmawQAMwAAMwAAMwAAMwAAMwAAMwAAMwAAMwAAMLDYGMM4xzllJggEYgAEYgAEYgAEYgAEYgAEYgAEYgAEYgAEYgAEYMBjAODfEWGyrIoyHlT4YgAEYgAEYgAEYgAEYgAEYgAEYgAEYgAEYgAEYyJyB0Mb52Pi4DN0akRvDw9zQAAZgAAZgAAZgAAZgAAZgAAZgAAZgAAZgAAZgAAZgoCAMKJ9a+dXZXCAIZZyPxWJyY2hILrR3SDwe54YGMAADMAADMAADMAADMAADMAADMAADMAADMAADMAADBWFA+dTKr1a+dbbM83DG+fi4XB8YkPrTZwsiBGY9ixUwAAMwAAMwAAMwAAMwAAMwAAMwAAMwAAMwAAMwAAOKAeVTK786m1Hn8zLOT5w6g3HOKhIMwAAMwAAMwAAMwAAMwAAMwAAMwAAMwAAMwAAMwEDBGFA+NcY5ABYMQFbwWMGDARiAARiAARiAARiAARiAARiAARiAARiAARgoNgYwzjHNMc1hAAZgAAZgAAZgAAZgAAZgAAZgAAZgAAZgAAZgAAYMBjDODTGKbVWD/rDSBgMwAAMwAAMwAAMwAAMwAAMwAAMwAAMwAAMwAAP5ZwDjHOOclSQYgAEYgAEYgAEYgAEYgAEYgAEYgAEYgAEYgAEYgAGDAYxzQwxWbvK/coPmaA4DMAADMAADMAADMAADMAADMAADMAADMAADMFBsDGCcY5yzkgQDMAADMAADMAADMAADMAADMAADMAADMAADMAADMGAwgHFuiFFsqxr0h5U2GIABGIABGIABGIABGIABGIABGIABGIABGIABGMg/AxjnGOesJMEADMAADMAADMAADMAADMAADMAADMAADMAADMAADBgMYJwbYrByk/+VGzRHcxiAARiAARiAARiAARiAARiAARiAARiAARiAgWJjAOMc45yVJBiAARiAARiAARiAARiAARiAARiAARiAARiAARiAAYMBjHNDjGJb1aA/rLTBAAzAAAzAAAzAAAzAAAzAAAzAAAzAAAzAAAzAQP4ZwDjHOGclCQZgAAZgAAZgAAZgAAZgAAZgAAZgAAZgAAZgAAZgwGAA49wQg5Wb/K/coDmawwAMwAAMwAAMwAAMwAAMwAAMwAAMwAAMwAAMFBsDGOcY56wkwQAMwAAMwAAMwAAMwAAMwAAMwAAMwAAMwAAMwAAMGAxgnBtiFNuqBv1hpQ0GYAAGYAAGYAAGYAAGYAAGYAAGYAAGYAAGYAAG8s8AxjnGOStJMAADMAADMAADMAADMAADMAADMAADMAADMAADMAADBgMY54YYrNzkf+UGzdEcBmAABmAABmAABmAABmAABmAABmAABmAABmCg2BjAOMc4ZyUJBmAABmAABmAABmAABmAABmAABmAABmAABmAABmDAYADj3BCj2FY16A8rbTAAAzAAAzAAAzAAAzAAAzAAAzAAAzAAAzAAAzCQfwYwzjHOWUmCARiAARiAARiAARiAARiAARiAARiAARiAARiAARgwGMA4N8Rg5Sb/KzdojuYwAAMwAAMwAAMwAAMwAAMwAAMwAAMwAAMwAAPFxgDGOcY5K0kwAAMwAAMwAAMwAAMJDPRcviKv/+FP8sTTyxf1TY1RjTXTi5SJ27el5+pVudjVxW2BaaDmTc0fcw67uXr/hmVMMVkqn72L/dzC+Ob+7hD2/Dt19WsZ+fcfyNCq73FDg0XPgGJdMZ/pd5Zslsc4T7hIyqa41MVKGQzAAAzAAAzAAAwsTAbUBW3kaI0s9j81RjXWTDlVxtit0dHFLs+iHJ+aNzV/zPminN6iGFRYxhSTpfLZWxQTRScKqkDY868yEodX37voDVMWBlgYUQwo1hXzmX5nyWZ5jHOM84ICmE2YqWthGhPMG/MGAzAAAzBQjAyoaLlS+VNjzXQOVKQqfwtXATV/zPnCnb+F0PMwjCkmS+mzdyHMI33MrQJhzr8YyhjKpchApt9Zslke43zBG+d9Ur78frn3Pvu2bH9fxl+CswkUdWF+wAAMwAAMwAAMLAYGSsm8CXPhjnGeWzMl17WHMTWZ81zPyuKqPwxj6txRSp+9i2vGGU0YBcKcf0vRNGXMLBYU8tqitI3z3gpZ5hjO2njW9w/8YKk8vvx12bq/UfpixXwBjHFeyDcQbRfze4O+wScMwAAMwEB4BkrJvAlz4Y6JGsYiKZ5jwpiazHnxzN9C6EkYxtQ5q5Q+exfCPNLH3CoQ5vyLiYyJXIoMFPKaBuM8hXGuDXTr/sGlsrF6KDuR3H2H5Je6zbLGLNSJcV7INxBthzck0A7tYAAGYAAGipmBUjJvwly4Y6Lm1kzJde1hTE3mPNezsrjqD8OYOieU0mfv4ppxRhNGgTDn31I0TRkziwWFvGbAONcm9n33y5LHlsrjTzq3xx5x05/YJvpPpKwxNn+j+8wWeUC3iXE+fz0XfKodTJNCfgDSNvzBAAzAAAykYqCUzJswF+6YqGEskuI5JoypyZwXz/wthJ6EYUx9HpfSZ+9CmEf6mFsFwpx/MZExkUuRgVTf1/PxPMa5NrHvu1/KGv0Xj0MtFbLmMS9/+L0/2iIn55m2pa/yRc+QxzjHOMf4hwEYgAEYgAEYKEoGSsm8CXPhjomaWzMl17WHMTWZ81zPyuKqPwxjGOeLiwFGM7cCYc6/pWiaMmYWC/JhkKdqA+N8FuPcEq35A3nUKLPmKyNly2SfnNy/W9atXCqPPGgY7Fb0+quytdbbqDPW2yxffPqBrPvZEs84f/gnXoT7uqj0ORfOfY0VsmP9q/L4D4yyqg8P/0RWbq2VvknT4E9I1fJZszR9ukGWuscukUd+tkHK25Kj5TNrJy7xoTYpX7/MP9YHfyhL13wgkc7E+ocS+nG/3KvKrq+Qi0Nm/9XjIbm43+yz0lL1+3XZ+lWPxDAUitJQSPWhwvOJfPM/TCwcBnae/EYe/+s5+V9//If8y+oqueeVo2ndVFl1jDpW1cGcL5w5Z65Sz1W+jPPGM01SXnFAfr/xXVm24mUr2vLV1/5g/f9lpEombt92r7z/q+IL6/Vs9y3MhTsmqjstC/JBGFOTOV+QU12wTodhTJ2Tsv35VjABaBgF0lAgzPkXExkTuRQZKOQ1C8a5YYonRpzbE+M3pu9dX+sZuY1bPBPcqMfLj75EtNHet3/F7GWXVzjGeaOUBdblGfMPrInKkGsmJ/Qv5bGJqWYybGekUcrM6PuEdpbt9xYJ4iPNstVcIEgoe+9jW+TkiL5QjcnJsp+k1sbVRZfnvpAfGLQNfzCwOBlQZrcyvtM1yucqp+rCQF+crJTSZ0CuzZvLV74RZZCrdma7KTNdGevqD+M8DReCImkpEMbUxDhPS1oKOQqEYUydY3L92csEoUAxKaB4z/S7VSmapoyZxYJM3yfZLI9xbpi6wcZ5XE6Weab1vc9WSLc2rRu3yJLHVsiazR/InoO1UlNbKzXRCtlomsaO8dv31QYruvzRh426AiPOG6Xs4Z/IsjVvy9ZPD9l11kalfOMyLzf6fSukvFdfkCcY5w8vkzWb98oXtbXyxacbZJnZ3mMfSJPuezyzdrr3LHXN7Qd+tsWqX493x+bXZeNX2jhXRvijbtlHf7dXTvYMyVBfm3yx0TPIf7i92T5BdO6Vx/UcPLhMyrSOasw73pY1G71I/GyCT12aH+5hAQZKnYEXPm/NmmGeaKiruktdX8a/cD9jcmnemAa4Ns3f3PiO7P7bf1rm+Nv/vk2eX/lbn6G+7cPdGOeFcjtGr0tLZ6d16x3VnZiRsf7L0tIzIGMz+jl9f1dG+jql4cwpOd54Tpp6BmRCv1Qk92FMzcVunE/HBqSj87JciyVNaJHM2sLqRhjG1Dkzl5+9C0vBQvY2LiNXGuTwf30kO/eUS/XF3qL7DCukOtlsG+N8oRjCL8nkmf0ypW5VL0n+jfwfy+0ThWy/8PNUyGsqjHNt2gbkONcT0/2ZGS2+RU665nOKi8GeClnm1usv7zPhM8px3iPlz3qmu2fy+41zX+S36qcv1cySpDzueozefXA7Zr9/WalN8oDxD0VljR77j0yjXpVtlI36Nb0AYUbt/+qQm67G609AG3Ppz+sYVTAAAzCQFgNhTfOf/9dFibQPyfDtuHXtoO7V/+r53JrnMelrPiR7tn4gW53bjv21cnEgMV0Y5w7Oo/NnIFfmjWmaP7PiJTl0+GjKa3CVxuXV33lR6b/7/SbXTE95UIgXwly459dEHZNex7hu6bwuIynGOD1y1TW4W/rGUpQK8fSlBik/HLFu1Zec43tPSYXzXMWZq0alU9LRWOWWt49rkFajRDE8DGNq5nfODZVmRqTHnf+rMpQTX7tXjh+x57g8elZ6jOZ5GE6BMIypc1euPnuDRhEf+FrOnm1IvnX1Snw66IhSeC4uLZ++Ik/5fg21XVoWxNCV4V8nFTs3y+pVr8gLq9bJpp175XB9mwzaX1ntUYx2J8+5y8HXMngnf4MNc/7Nv2mrTdOHZOzgR/JtT4dMDw7KzHCHTPefl/iZMolt0mUW6/0n4n4kDH5SAOP8DYlPOlwWpP3Cz2shr20wzrWRO4tx7k+z4jfCAyevNxfGud8gT9s4j/fInic9w33ZZz1zmCnB7fg0eHCprNwRlYsDARelphG+MSpDQ0PGrU32uOa/o6NPqyXy+KrdEmkz8shjfs0xXwFzgGZoBgMwkAYDKpVKosk91/8P/blBGntnN6Mar9wSVc6sKxtpW2Jte2Wl8SuqB36wVLxfcZm/xOJzMfC7SRpMcJyfnVyYNyo9i6pX3ZQhfuPG0JxX5yrHuWme6+PnPDCDAqrOTOc/vybqJal2TGplREc7pgJGNynNdY7xqcqe1A53QNFMnwoyzq+ddY3zynMDXo1jrfKl7mt1nZy42CnN5zvlmleiKB6FMTXzO+eeTNOG/uWHo3L8SnjnfKTnnBxvPCXHW405s5q6KnVRh5/qc0U3X54aC+dRGMbU55D6PMrX3+CRde5nsv5sde9/sU72tXt7TGSvT71St0dFcldKy3j2as1aTePHZCqj4jQAACAASURBVJNznnrqtTKpqG2QuiMNYi4PZq2trFZ0W1r2JBr+Xiq0145c91pr2Z563p9eJ4dveEVz/SjM+bcgxvmubXI3Ja+jEv/vAhirez+Ru/3KvD8gt1fluv35Geexk6dkWvX1640hTXeM80y/p2azPMZ5Gsa5GW3tS9WiLkIHmqW87FV5/Kc/lAfue0QefXKpLHtumfzQrddvtPvqShlxPiRN+7fIyiftTUeXPLZUHl/+oiz9kWeAp2+c+43we31tZtBOYI7zJfLIc2pjUM/o9hnsrgZev9387w9ucdLGBOc4f+AHL8rWaI+Ry91/MZvNNwF1oS0MwEApMpBpTnNlhusI87kuIoZjU/LQO17OdNXWvDTuqZBfqk24H15hbbzt2zR6MiZ9bc3SnbTxNFzPS3OM9pyYN9oAV5HmykSf7c+MTHeNHCMCcLZjM30tzIV7fk1Uv3Fefuy8DCYMcvr6OanUhnU+jHOZkTs3eqWl94bcMX3cy150erTbfCGhwwX+N4ypmd851wJNScsJY0HEmVs38k8XS/O+9aRTV8DCyvTUDenq7JXrU8U7b7MNMx6/K9ETJxJ+7ZCgnfEe+fJ47WzVzfu1MIyp85b6PMrXn2ecr5VNlpmtDO33ZfUvHMP12felIdvRxzcOyWvWZ3l+Ddq0Nb34kRttvr057aMKXjB++n2330+9sV0O1zu/JKgtl53bNsimY4ZxfvWY7HTnW835dln/kp7zMqlLaRBnf5hhzr95N843vSFxM9/YzJTMDCrDWt2uyHdTg/JtIYzzxg5nQjpkqsiN8yn9pSV0tDjGeSGvazDODXPXM6PNi+0E49nYHDTWvFuWqgt5o47kxxka57Fm2WHmSE9Rt9dXf/+SUrXE/a+7xnnG7cQlPtknNTtel6VGxJ893kdkZaUdyZ62cZ6w6Wdf7W5Z89QjSVouWXnIyynPRfz8jCf0Qz8YgAGHgTDR5nNFmideSjR298s9L33hRp6HjzqPSc3GJXLvfT+Rrc3m+TnV45j1S6fYpPN6TP3yKSGVS2xILjbae5M09SS8pjQaCTgmHpeY9Ssqo/yk05ala0yG2hqtvUmaeo0yqd53CW1YdcfMMcVkqKfZ3uukuUfc8Zj1jfRIk9pfpVYtHAS16fWpJrAOu/9DvnbV+T7x+fQ07VPjb+6RIXcDcD2ebIxF15W/+2ybNzW1J9wIt9nSs+j3Esa5VkLdJxjnSVHHweaqWYMoo3vkunTolB+JhrdR2DZQ7ZzmXTemxIx4dlO1zEzJ2NiYjIyNyZhhtE5317vGZbTNfn1kYkqmjfIjk3eN1kTU769VPeo2YaYT8JfK6n9hTM2CGOd3OiVqmb1RiZ6odbStl5aUZuZdmRjW89wr10ytZ25IwzHHSK5vdzSfcBY+ZuTOhDFfCWrHJwekS7PTc11GkubJO96ew7syMdDrpA4KMuOdhRddZ+/AvOd+ZGzcZU+nFprrXh2Tq78wjBXOOPenIjFN2CTzeHpUei7q9C4JKUC0mKPd0qJTf1zs9vPSvN0xeNdKRc+oTIyPysSdBKCmb8vVLt3G19IzmvC6aueOc6x+KX5bJsZv+1PMTMdlcK56dJ/1fbMXjb2l3mnDSc0n06qNUZlw/4/b/+s+qDqmVboULwVOx4D5otNIYj13eqXD0csrH5d4X5uTUiWFzrrPItKyR0eXZ77YMXhkgz0nz26QA30B/TXayfbDhWCcx9q06yvy3c0DMpEyLctDMrZnhcT2rpDx9+wI8NFd6v8nZdQ0tt97SSZPOvm6z3wkt7c/lBSFPbprtVHGzis+5mv3IbndpTcduSLf7nXaTahr9LMyOy+5yk1e94b465glSn3Tj+V2ndNH67hUEedqzBvljs5/fma/3PkyYbxq4UGnWbl5wNIntvcZoy9p1LHKqEOZ76aGVS/59bW0TqfO78mQOc6gvuu6Dn7k6RjY3ixamnM/j8cY57GYjI2Py/WBAVFOft4E8aUJuT84/3fnXllqmNdrvtLR1T2y5yltmi+RX37W5l3Udu4NneO8+9Nlrnn8wK8q5KK++JzsMdKcmH31G+PJxrk/Z7l+PfN2zAvVmPQ1VkjZcsPofvBtqYnFJVa9we3/vZsbM57LWG+jlJetkCWu5ktkY22QGWD2h8d5e8+Yhg2PM+abeeK9WiwMPP7Xc66hbaZUSfVY5S4P8/fzD6vknlVRqy3VZqjxx2plnTonJCy4pqzLObevOdgmJ7fq84lexI5J0w79nD6H3y8P/HSLnDQi1u1fh+ljNLf6fGs8b6Une1Q27tnt34z7vvvl0d9FZ134tdr40Qdysq1C1v1ULQzcL/ocHe+Jus+5C/IPvypf9Oi+xOTke0uNTcPtsSzZ6my8rUz+5uQ+3fvgUik7ob/HxCXuaOW2qz/XnbRr7vOzajpk6Kw1XSJlZ5y+ZmEsKeda9zdH99k2zk0jPJ3304XWdmszUHVc0C2dOtItE+bCPb8mqmecVxyJ2ubg8QtervN+HW0elQqdp9qMKJ65IU3/cI4zIm7LI7XSMOA3sSeunPJHrh+OSEXUO9Y1zofOywGnrgPnh0VkWE7XpIjutSLkx+T0cef1qnPSa0zO4Pkax/CsldPaBzBez8XDMKZmfufcHvWd9jpbmyOnpGv0gpsGJyhdz/RIu0Srkueg+rKIGL8E8JvJNdJgZUwa9kx13y8aJqXrVGLOetVGlVR3T3g5b8U7/suz56U6qR81clpnZkrFo6/dcLP+z7NNaZvnqmwu/8Iwpj7vs/3ZO9sYvYhzv3EublT4cnnt6E23ionmj+SFZ7VBqyOUX5GdLTqly23p2LfWjXxWY7Fvqv6bcniD/j/h/q9nvTbaP5bViW08vVxe2NMgE8ZPLVr+atexbF+D9BxyjF8zzUjfIVmvI+fdfjwv648akdduq+rBLP37/SH7Vz46xclzH8vZnnK3fjcNysAxeVdHbrttLpenNh+Sq0bfxa3nfdnz6boEvZ6X9Z/ulS2rn3cXmy0Nn90wawqVjn0vO+Vfli113pz5hhjwz2BdmSxXfX12g1T06HkMKJijp9TYMv2ek9+I89VGtPmgfPvZbAapZ+7OtG2Tb2/qtGo6IvwhiZ3pkO+StJyS6cYnXfP8Tn9SAfuJux0y9RfVvmFiJxT9rusNu55NK2SqX7dvFFJ17JptDN+ToV0fyV1tdOtD7055/XajxlfLt6nWHsejdvqYkzoqXlek73V6mzTqsMxmT1uZGpXvEn8YNV4rt92FhfTqvHUwKjP+r0BW51wNVbvvbZR40Bh97c2h5zzMcpP1TN8n2SxPxLlr0JpmtHOx1xeVjY/pi8D75V7HHLYmoO+Q/NI99nWJaINbXbz5DHnjAjseF1+qliRjuU+++JXX3pqoaRjrC3b79bQjzn3G/6NOtF6YdvTFunnfLFvd9DFOfllz7D96W06aumRwYdu09VHXgHcv3DM4PptvEuoy55zH8AADi4GBTNO0qI0/w/xFmi/LPcs/sYzz0Olamj+w0p898J5nCs86B8556IEHH5HHV30g5VEVkd1mpf4a+up1y2x+dGNUuq3zU0yGGj+wfz321F7X6M7MOL9fHvjZFmt/DiuFTKxPIht/4jfCA85fdhtL5IEfrJB1nx4yItWbZav67vHUB3JS7yUy1Chl1nNOHx1Nln3aI27ampE+udjjmOIDUVmjfhH32NsScSLqYwONstX6Rdsy2dPpvI8drZLOsymM8yBNm7arsS6Rxzcfkot9zr4mfW3SbfU9C2MJ0G7W+c9ieXUxm82/Nze+Y13Uq/ti+wtz4Z5fE9UzzqsvaPNU57qektaTtrFdcfK8nNARxa5xPiUdDZ7xfeDEKTneWC8HIo7BeqReWrVX4kY3R6Q8UiNRlQtbldVm/OGIzGacN9VVSaXOk61M9WiVVFZVSWVdq2U6jbTqiOkqOeEaA2PSVOv0xVwMyDEkYUzN/M65EmDKy1t/8pJMG+Z0+YlO8QWd37ks1Yb2FcfrrVzm0eNROa6M8ytnpbLK46A8ErXnpqpOmtS6h1m3YWAPfq0XNSJSWavqrJcvXVO8RhoGtXvhGefKmK+o8drXRn1lk21YehxE5cszrdLS2S4NZ+olUm9zMp+pV+laKo8GGf3+BQVVRpXN5V8YxtTne7Y/e2cbYyrjfOToBteE3dPl1GCY6av3HLEioav3OCb5cx9LhzKGuz6WZY5hvPrDQ1J3tkGqv/hItry1VzrkplT/xyvywnOeab7s12oDy1fkhf/62m5EteGY5k/9erNs3/ORbH/Hy9v92lee6a2N8yeeXW4Yz076lztnZafTzvL3yq1+1B1yDOKnN0h14AKd078XPMP6qRec/v3HMXuhUhveTy+Xpwxz3zLO73wtO7Vp/ot1skWlQtnmmeLLPmwQN9uHWc9zTtmdG2wD29Fv2W+Tx/9CZXfq6ez62Hf8U6s3y54jZ/2bgiYcPdGy3TnmZdnecN0frZ9QNlf/hjn/mmZi7h8bJvVk7Ry5xA1z1yeYY5z/d61rPn/XH7UimL/td2CcOS93HON3ql/ku9EOmf6mVr49c0Digx6wMxdWyNCqj+Tu1JTPPP5O/T81JTMXVlvGuReNPirTbSpyPCrT2gy/9pHcSmnm/limjHWX76wNUDtkxoVXRFzj/A2Jj0+JVaZHjScqd8c9s/5u7fdk6MR5q1+uHDN2P7+buiLf/l0ZzmnUkWici9ht9nfIjB6Teq5H509Pp84Vnul/d1DuKo2aa+Wu2vTV0XBo1Y/FTTGjyjSrMqdcs32m7SV3sSP3HH4v4wWmbF4vYJy75vf9snTNB7J16weydfPrsszKWe6Z2Oon4mWNhpGtI+Cs4x+VjSec1yaHpGnPi0YUmN84796z1DWEVeTXuk+j1sVyZH+tdMdjUrPea/OHmxvdC+Kh5r12flenv6mM8wd++qrsOFgrTT19crF2r6wxjX/XFMi8nabPNsgeq177ojgWi0mfimZz9dtgRZzH40PyxUpvDA/8dIPsqW2TPr1JqPrZ+cG9srGyzQb/TIVtGKifdqsysZjE+pplx3KvjnXVhu5ZvCDO5huJujBTYQAGFhID/7K6KqOI83Rzm7tfCp0Hw7E7cs9T71ttqTZDaZRo4lrngSE5+alzzlbnbXX7ytn8Wi/gJi1OO78U+9EHzh4bHrP2r7CWuL88y9Q4TzKe487C8pOeGZ84druNFVLuRpHb/bF/uaUXur0+9lW+KPfe5yxSO5qkOj/a40muI+4spj+g9zvJ0DhP+iVZrFY2KoPe/X7h9VeNNxtjSdQtn/9n27xRec1Vnbv/9p+Jb5WC/x/mwj2/JqphnF+aka5GxwCtbZURN/JbmdGGeamNc2OzzorGXjdCePrKKXdzzy8v2Jsem4ambwNKY3PK1Ma5M41BZfUMG8a8HaWu0i20S8SJXI+0exfc+pBc3YcxNfM75yJizJ2OML92TpvCddJsOOfm3EW7DSfBJ6DHUfLmsQY7rnHeK8f1oom5qGFEvntMGcfXK5Pf+TPmV7fp/sLAXLTR5bNwf21gcM6oc1Um139hGFOf8dn+7J1tnJ5x/rwsVwa2uv36edeIXv7Xs67Z60Y0v1fnPifTDbLdMnpfFstgdw3hdXIgcf9ZpyNem8k5zt02fOb2qFRvdsx2bdCr1CROxPkTq7ZL3ZWbVvqU+B07VctE3Wbb+F+1V3pcGK/LgdfsejbVeUZkkj7uGJbLzpaEV93XXpHtdd0yqFLDqBQxcRG3zadflj3t3nEdn+pIcMOwd+vxa3D2Q72oYPwCwNV4uTxhROZ7LehHt43Ie12Pun9eVn/aICOuDrr8dTn8e7PccnniF6/IljpvcUKXzOV9mPNvPkxKt429UdHLg5KJcT5+Su58uUJiu34sY3vs1CWTepfs0QMyro3rTfvd+i2jWT/vuzcMede0/p5n6oqOaNeRz9vkrtPpma+9SPZbZ67YUzlzXiZ99evjvidD5nh9BruxgGD0wdVJ12eMx4vcTvPYWesI1mBoU5nc1V8dpk6lHldSv4z6bu735kP3Qd27WkzJ3WNeOh13UWI8KjGzfI4f5/MaILEtjHPX+PWMWvdn0fo1ZXDrC3LXuB2SyBr7p9W6/JIfqA1CE+vxG+fx5g/k0aQy6hi7nI6G03Xe+/AP5ZGAPOqpjHP3uKQ2fiJlZzwDOtN27Av8xLF5/z/6XrNr8sf1Jm5JffDKu7nWnYv/lP1+bIs0JeZedefAf4GeCDf/ow8MwAAMBDOQqXE+nwuGe54sk3tWHpJ5G+efOca4dQ7ok8i6pfL4k+r2Ezu9V4IZ7J5n9DljKCpr1HnJ2KvE5ePMFuv8rQ3w+RvneoH6dYkYKWDc9txfoDlGuO5jPC5N29UvrpbKxko7B3uNlcO8Vmp2veoZ57FmOwL9wR/KL7ceEn9OdfX9RJ1v9YK2yUCzlKnvFDrtTabGudZY97dzrzx+3/3yw+3BvwaY/1jMvuf/cbbNm2wY58p0V/1SdWXzL8yFe35NVM/wtIxr17iskgM1joluRSAb5qU2zlMa2V6d2tB0N4483CCtpsBBdbiGfURcE1wdE1TWrSvB9FfpgN3ys+XtdivI2oMwpmZ+51xk5IKO0DdMcmMT2C9b7QUPJUpHg46orpdW1+VJlCt5zr0SBjvaOE81x4HR6cbxmj2r8oA2r511F23KD0flwMnz0qFy6Xudmfej2VK25DpFi+58GMbUeTLbn726P0H3nomdYKA+/bysP9RmpEbxTNZlG943NpbcLCudCGnLZB4/Ju+6kdjPy8o/75W6K36T2mvTbxqLeG08oVOjOJ0OOsY1zhPKqkPc11ZvNvr6vrzmRKG7qVWCRHFN7dmM88S+G20+bZjeVme8nOmuEe+24a/H7bevjrOy09F4duPcGcxot9Tt3ywrE9LUPPWOEzXvjvmmnK1UG4N+JDt3muVflp0X85fnPMz5N8mszaVhaRiuGRnnSeayYdROXHE2FlWbiw66UejTjZ6BfWu7kQe97hMvdYpRrxsNnWicm5HtN/Umph0yPaod5kSj3Wt3yN1wVMTsjy89jNEHNReju4wc51XeQkMmxvncdRj6JbSvIvTtvyvyrZXKxh7PXHVOfqP1EJGZUZnu+sSfb97VYkpmrI1gbS3d6Ps5F1IMXbPAqHkdle/HGOcpzd0l8shPX7UiwrtTXPTGR5qdnz0bhvDDK2RrbZt8YV20qucTjPN4XLq/2pC0weaSx3Y7EXAxadq+LMGAf0SWba2Vi5Wvu9Hqgcb5g1vkZF+jbH3Ob+CrqO/yNs80tyHLrJ2+aHKfbbP7EVm2o9n6CbwPXvWT8IR+uOb4w8tkjbOZaLw3KusCNgVVZZcs3y1NqbTXF+3ch4vgRDd0g4GSZiDTVC3zijhXxvmLlRI6VUtPhf3rpqQIcm2kNkqZOpdrU1dHnOv/NeupnlevJxjI8zfOdWq2ZGNcnyvdiPNePQ773n5efQfRCwPm/QaJ9DnlB5plz/pl7p4gS5br1C46tVvy94+43jA8W8Z54K8BvPHMfyxeXVq3fN5n27zJRqqWbNShL6/M+zAX7vk1UT3z0Y749tKz2GkwdOqTAPPSNaaNNCvW4L0682eci3iR7rXSNDYjrllvpSIxZyW3j8OYmvmdcyMn/OGoVKiUN9bNSLeifnHgyOTqmLjo4ZMxec69lw12cm2cy4yMXT7rSwGkOK5suORFMnsdC/UoVcqWfKRo0R0Ow5j6jM/2Z6/uT9C9Z0i/L3Vq08sbdbLdMZeX/fWsePapYWprE9d3/4pUXHVa6DuSlJ9b5fgedFZGvDb9pnFOjHNfH73FgS0N3siSdHFN7QVqnOsBqY1Rz34sq10DfYMcttIy6QIJ97fr5F1Hr6f2OKlzEork4t8w59+8GudmPvHZIpotYzS1uWulJEn1YyBL2Cm5G1VG60Ny+8IV10xP0twwjdMxzpOOV0/MNg7XLE7HOH9S7nzjXxgz20vPOE+3jtTauhHgovOmp1nnphUB/TfyzRtamONyHw8fkLEsGOLp8pzPa4DEtkrbONcX0/O8j6n0I7UqPcqQF3WdRp0xJ31JbDLgwnCkR5pUlJlKYRIm4jrm5BkdSjTME9rKsJ3YUJ9cbLSj4E629c3dt9iQ9LU1WvpY5VP1Z8QrV9OoUrvM0e809E2Enf8T5h4NS9o45f1Q2u+HTDcHnVeOc2Wcv/SFhN4cNN5oR0kHpFixOU7TONcp1tZEkxd7Ewzg+RvnOur7bTmZ4rM2lXFup3RLbbgnvXcnh+RidIudp/2x3XLRTfsWFO3uaJUt49yJOE+Vf37+Yyns+zTb5k2mm4O6FybGA9UndVN1ZfMvzIV7fk1Uz/AMSpXi5bs2zE8d9WtsCulLhTJzSaJ6o1CnrBe1bEQ4K6GDzPdU0chBZX2TNSAnqu3o6Ej7JScViM7X7iuY03/CmJp5nXNDX50jPPne20w15dz5VPQ40osl3ssGO9o4H77gbgCr85Pb5W8EbCRqHK/ZswrP1uZdGelrl7panX4mKsfNXWO9zoV6FJSyJR8pWnRnwzCmznHZ/uzV/Qm690xsL0p6pG6zk6rFSb9iHehtnLlsX1tQVUnPxQfOyuGdXo5vnR7FazPROPfaeGJVuWgfXlU8+NVaS5cnjM0/3ejsoIjzPY5J/s6xzBdjwhrnus2n35cGI42SNOc54jxhJoK0Syji/NstFasc3WZNCRN8dNhnw5x/0zUas1Pux/KtseAw3fjjWfJapzZ3h1YZm4xe25a6js+MiO2eMhnf/mMZ37sts4jzv3u51FOnf0kRDW1s5jnTbI41Od3Krbrz7rTPNK12+nrATT2TjnGefh2ptU1cQEi/TkeD916Sya/Pu7nLRaeycbUYlG/3ptAL41zGY7FQt3vCHDg2Pi7XBwZEOflJF4UpLjopV9gLSvRHfxiAARhYmAzsPPlNRjnOf/5fF90vhpk8+PkHEbFStfwmIqrNsLzYG1DeL4+WeXt/eHWlaZzraOsHN0hNwsbV9obUXk5w29RONJ4DIrkTDHe3TyO1sk6lRFl5KNmkd77TpDLOY7VvW786W3nQ2egzze9AF3epTTpflS8G4tK3f4W1YWdSDnRnU1E3tYoTae/+r9tKHFeqaH2d4/xJZdgnvxeyMRZX04D6c/1ats2bmtoTjvGxXA4dPprJW8kqq45RfVK3xjNNGR8/2wFhLtzzaqKKZz66xnnggALMSyOveHldu4w5aTwm2uvcPNDaUL9jPHfg/A03dUa8s94t67ZvGLvpp2qxO+2mIKmukkpl3ledkyz6pYHKJD4ZxtTM55y7ecAP18iJvjEZGTNuHd586Pz0vrlrHjAihWdk2k3dYuQsr2tPMBQNdrRxLt4iR3n1WelxgnSnjXQxnqFuHD+HcT4dv+uyZc2LsYjj8pU4YSH/N1O25CtFi+5qGMbU53q2P3t1f4LuPRPbM85lulsqfusYqIYpffWQY14/t13OjifUNh0Xa1LVve/Pyyuu06N4ucBfkX09vsLitvH0WtnnAmf0xzDUZzPO46ffd8z/dXKgL7FPTl/9TXv/hTTOvTaXy5Z6HYV7Wxq2OVqahrrbhn/xwB1TiFQt8YFeuTqud3p2hjPdKwc2JLc/cbVNrt726zLRrDcKXS4rD+XvEznM+Tc7hnj6Ruit2vNGBPioTJ/ZKOPb7ZzXo7tWSOzLj2TyM1VfanNX9fl2j5MaZOaKTH3i5cy2xrPp+zKqNgd1o5xHJX5Q9zG4XjdnugzKt7t0WXW/0cv7fXO/xJxNR7Vut977furNQf/iGd8yUSu39bHvebnY9eagXqT3FZnS5YzUNp5x7uVcFzO/u9KkS79X5qrD0ODmfhnVhvWu/TKjz3FOzvH06nxIRt/zz4GbA16nvvmLN2a18ajbptP26HvfT70AovuXxftcf++frX4izgtwITbbhPBa8oU3mqAJDMAADGSfgUzTtTReueVdVKXxqLGr3zbNn9kRPk2Le47ukfJf2fuKLHnqdWsTbDf3d/QDO5WLTs2SyuRVm1U2brH2GVmycrec7FG/zOqTpv2vW8898KtD0ue0Z+fmvl+W7Wq2N7fuaZTyshVOWhQjBYpjMN/78Aop218rF/vUr6eiUvYz1Vf/3iKJDKcyzuNqY1G1sfeDy6TsYLN0G5trf7HjkGVQDzVG5Qvr11nOr8t6orJRHWNFnMclPtJo50B/+FXZ0Whvvt3XXGFvGP7gi/KFTg+j877/aINEHD0uRnfLyp/aWuuc7zqVjZsOx52XuHTvWWalkVOpYuw+qV/MHZJIozL+szAWo61EDXP9fy7Mm1d/9wfLFFq24mW5fOWbNN5JdhFVVvVH3VQd2f4Lc+GeTxNV5mOcy4xcP1/jGt/lUZXyw0j3UX1OevVF50yvHI/qXNkRqVBlo0bZw0a6l3kY5+LmaLfbqjyXYhfBbE+0UV8YUzN/c24Y1kGLCuZiiDa5E+au/EjUSu1SETHmTMakqdab3/JIVCoiNdIwpIQxjG9dp4hMXGrw8pFbdUa9/w/XSbPr0xnHz2GcW4sCqq7j9XK88ZREj+k+eRH0xlTN66FK2XLoeK1E/3lC1ON8/oVhTH2u5+KzN9W4A41zEYm3bJdlzmfulgZnkkePySadv/zZ5+2NRK0NRV+Wp3QkuDKEf/GyvPDGZtm+5yPZ/s4rXvS63jCz62O3bjXWZS88L0/pCOfbZ2XnS47Rq9twUseosm5fzDzmhrnvjnO6Tfboep42Nj5d9YosezYgBYt7oKo4IEJcv+6+5je8rZenr8th16R22nzheffctbKyW9ditOGvZz7GuTeXy+WpF9RGr2petGm+XJYbvxRwy6q5UnNo9POJl7ZLi/u+9rqcq0dhzr/aAM7f/ZMy1W/kww4Qw84Hbpi7RkoVt59GNLmq4rupKfcmOs2ImZ98/Lx823ZKZswUL0a9XMzDzgAAIABJREFUsQv+TY6/uyuizWrfazNeO6rM7LnaH5LJa8ZYnWN9Q3b6cMs1+UW+u1kr33Z1eFHbanxdbzjG8gr51lxsU3XO2GlV0q/D0FZ1JqlfU3K31jbC06vTqe/ulHw3rHKXX5Hv9Hchd9PPBC1UWT1nqqwxF+4cZ9EoT6wz19/7Z6sf47yAF2SzTQyvZd8kQlM0hQEYgAGPgUyjzh/6c4MMx4wvkr5vkP5/hmN35KE1f7ON81/9fV7R5u6cTfZJzY7Xk/YIufe+JfLIz16XHZZR6+UrDzJ5VV3J+4wskcfXVchFMwq9N2qbzHofFGsTzkap2bXUv3eJjsze/IF/v47ATcU97VU/UhvncYmrfUKWP+Lua6L3CFmyvEK643EZim5I2jhc7WcS6THa6EneQyR5z5OYNO3w76uy5KkNUn7mkKy7735JxziPx1UdLyb05xFZF3Ui5rMxlgJ9V8uFeeMzwF/7Q1rmuTrm1ddsw131KRPD3f/OTP1fmAv3/Jmoqt/ziDi3hj0pPedqDcPTNioras5KV4JBMj3SLtVV2siMSHmkRo6fP+Wm7HAjgudjnMuUtJzQbWjjNvX85OKVMKZm3ua8/5wdiX84IhWngiI/p6S5Tuun89uLTMcuywk37Yn3et01T8HpwVaJmPN7uFZOW2kIDOPbMM5FZmSovUEqI7o+576qXpoGtcug6jeOn8M4H+kMqE9x1j3ij0T3ur0gH4VhTJ0fc/HZm0pA10D1RTir0qNS945juqoIc/05EZC/XPX3qdUf2VHoVyvdDTjV89bt2Vfk3SPdxi8cbkvHfi+Fi3X8p0ZO7eE62b7aM5ytOn7ximypu+4bhmsyBxnnquT417Jvw/M+89hq67l1ctjMA+OrdR7GuarndrcceCehzWefl9f2f22M32wje8b5RMP7stzNZ+4Z5k8o7Xz6i0yc/UhWGgsSlsZPL5cX3imXFtPgTNQmB/+rtt3vuml+30k0FPPz//dl4sx55dcm/81Myd0Tc0ecq36OHo4G1zHVIVNWOpCH5HaH3xCXifNy96bTrGnWbnpDvh32d2imbbVjVn9fbrcZZrDR6+8G90tsNoN302r5dtBf73f9tQHpYpIXFL4bPiV3HYY84/x7cutg1Geqi4qS/7vSLN06PON8pueATJuLCTNTMt282oiiT6fOFTKVMEZLoskOmfrciEQPzINui/ld10YizkOmaVFZWkjVkuYHXqYfkJQ3DAE0zvgECz/wAwMwkMjAC5+3ZpSy5aF3/iGN3e7W7cZXUO+hijR3TfNf/E1UG4ntzvd/vUfI0NCQBO4TMuc5IibqWOuWch8Rr0wsVX3aON/fZ49xxK4zZflU9aR63qkvVT89HVLvC5JOmbhux1w8SNWnlM/PoZduQ+keoHla/UzZdm7e2+piNhd/Zq5zFXn+ZaQqZTNmehbVn2znNtcNh7lwz5uJqjuZjfv4pJfyY3K26NsZuTOhUoNMGik/stEBr47eJiev9fEL7gaX3qu5fxTG1Fwwc+7Oc+r5i0+OycjEVPpG9cyUjOl0MZkcl3Iq78qErm9sQu6YHnzKYxbWC2EYU98PcvXZm1X17ozKhNpMVN38GT+sZuK3vdfjzqagSe1Px63jU73u1XFbUpVJqjPoifhtr693AjobdMx8nzP0mVffQ/TD0q2vTc529crE+OzaeRoHz2OI5jM+JMz5Nz9GuZn6xP/41vZnJLZ3hX3b82PDsPWXm62fVooXpw6d9sUs77axK410IO89KbG9z8iYTpfiM8W/L+O6rynLBPdb92H8veDXdX/1WILGocvoe6tsgGaZ1OGra5YxpVWnpV0ac7lJ5Zp3yu19Milti+5TLu/ne/04n+OJOM/zRdh8Jotjc3NhjK7oCgMwUMoMZGqeq40+f/5hlUSaL4uKLFd/6l797+Y0VxuC5sg0L6q5SjTO+U6R9UWSQs53Ls0b0zxX7ajb7ze+K3/95DPrph7r5/V9rkxz9R5WbWSq9YIxUTO2MXJ3wPTUhExMTclQ7zk3gj3SNpa7BmepOYypyZzPIigvJSkQhjH1OaQ+j/hDgVJRIMz5N5fmJHXPbpKjT+H0yfR7ajbLY5xzkZvxhVI2AaQuDEsYgAEYKDwDKm1LRjnPV0XlnuWfyD1PvW+nY1FGub49s0P+52uHspOepdjP0Rjni/o7RK7NGysFi5PzXLWV6qZymuciPYtpSoS5cMdENRVM77G34aWT7iN6SroKFGkcxtRkztObZ0rZCoRhTH0nzPVnL/ODAsWkQJjzL+Zt4cxbtC+c9oX0DDDOi/2inP4t6ovyQr75abvwZiVzwBwUGwPKQH/8r+csE/1fVlell8Zl5SH5l5f/W/7nGxH5ya4zpWGY63Pzmd3y+JNLZd1XTqoW/Tz3i+LcnS/zpvFMk5WC5c2N78gzK16ybuqxijBXr+XjL8yFOyZq5jOjclsfUJuNRqJy4B/npCNWINdcRMKYmsx55nNeykeEYUx9L8rXZ28pzw1jLx4Fwpx/MW8LZ96ifeG0L+R1M8Y5F7eL4uK2kG8i2sb8hAEYgAEYgIHFx0ApmTdhLtwxUYvHeAnTkzCmJnMeRunSPSYMY+pcWkqfvaVLByPXCoQ5/2LeFs68RfvCaV/Iay2Mc4xzjHMYgAEYgAEYgAEYgIEEBkrJvAlz4Y6Jqm2PhXkfxtRkzhfmXBeq12EYwzgv1GzRbqEUCHP+xbwtnHmL9oXTHuM8FpOx8XG5PjAgyskvpCC0vfgixphT5hQGYAAGYAAGYCBTBjDOZ2cGE7VQNkt22g1jajLn2dG+VGoJw5j6nC6lz95SYYFxplYA47xwRiwm+MLSPtPv8dksT8R5QnRRNsWlrtkvuNAHfWAABmAABmAABoqVgVIyb8JcuGOipjZCFsIrYUxN5nwhzGzx9DEMY+p8UEqfvcUzW/SkUAqEOf9i+C4sw5f5ys58FfJ6AeMc45wIfxiAARiAARiAARiAgQQGSsm8CXPhjolaKJslO+2GMTWZ8+xoXyq1hGEM47xU6GCcWoEw51+M2OwYsei4sHTEOCdVCxerCRerhXxT0DbRjzAAAzAAAzAAAxjnszOAiaptj4V5H8bUZM4X5lwXqtdhGFPn3lL67C3U3NBu8SiAcb6wzFvM9sLNVyGvzYg4x7DFtIcBGIABGIABGIABGEhgoJTMmzAX7pioxWO8hOlJGFOTOQ+jdOkeE4YxjPPS5aVURx7m/It5WzjzFu0Lpz3GORHnXKwmXKwW8k1B27NHmKEP+sAADMAADJQCA6//4U8SOVqz6K/l1RjVWDOd056rV+XW6Oii12cxDlDNm5o/5nwxzm5xjCksY4rJUvnsLY6ZoheFVCDs+Xfk338gw6vvFUzcwpm4aJ8/7RXrivlMv7NkszwR5xi2BQUwmzBTF0YODMAADMAADMBAthjouXzFMnBUNNhivimTSo01U90mbt+2zFcVVcptYWmgTHM1f8z5wpq3hfQ+C8uYYrJUPnsX83mFsaX3vSHs+Xfq6teWkYh5mz/zFq0Lp7UyzRXzmX5nyWZ5jHOM84ICmE2YqQuzBAZgAAZgAAZgAAZgAAZgAAZgAAZgAAZgAAZgIBsMYJxjnGOcwwAMwAAMwAAMwAAMwAAMwAAMwAAMwAAMwAAMwAAMGAxgnBtiZGMlgjpY0YIBGIABGIABGIABGIABGIABGIABGIABGIABGICBhc0AxjnGOStJMAADMAADMAADMAADMAADMAADMAADMAADMAADMAADBgMY54YYrAIt7FUg5o/5gwEYgAEYgAEYgAEYgAEYgAEYgAEYgAEYgAEYyAYDGOcY56wkwQAMwAAMwAAMwAAMwAAMwAAMwAAMwAAMwAAMwAAMGAxgnBtiZGMlgjpY0YIBGIABGIABGIABGIABGIABGIABGIABGIABGICBhc0AxjnGOStJMAADMAADMAADMAADMAADMAADMAADMAADMAADMAADBgMY54YYrAIt7FUg5o/5gwEYgAEYgAEYgAEYgAEYgAEYgAEYgAEYgAEYyAYDGOcY56wkwQAMwAAMwAAMwAAMwAAMwAAMwAAMwAAMwAAMwAAMGAxgnBtiZGMlgjpY0YIBGIABGIABGIABGIABGIABGIABGIABGIABGICBhc0AxjnGOStJMAADMAADMAADMAADMAADMAADMAADMAADMAADMAADBgMY54YYrAIt7FUg5o/5gwEYgAEYgAEYgAEYgAEYgAEYgAEYgAEYgAEYyAYDGOcY56wkwQAMwAAMwAAMwAAMwAAMwAAMwAAMwAAMwAAMwAAMGAxgnBtiZGMlgjpY0YIBGIABGIABGIABGIABGIABGIABGIABGIABGICBhc0AxjnGOStJMAADMAADMAADMAADMAADMAADMAADMAADMAADMAADBgMY54YYrAIt7FUg5o/5gwEYgAEYgAEYgAEYgAEYgAEYgAEYgAEYgAEYyAYDGOcY56wkwQAMwAAMwAAMwAAMwAAMwAAMwAAMwAAMwAAMwAAMGAxgnBtiZGMlgjpY0YIBGIABGIABGIABGIABGIABGIABGIABGIABGICBhc1AyRrnQyMjUn2yQcoPR7ihAQzAAAzAAAzAAAzAAAzAAAzAgMuAulZU14wYHgvb8GD+mD8YgAEYSI+BG8PDnPMCgqtL1jhXX4S6e78R/lAABVAABVAABVAABVAABVAABVDAVEBdK6prRgyX9AwXdEInGIABGFjYDGCcB89fyRrnKtKcPxRAARRAARRAARRAARRAARRAARQIUkBdM2IEBRsJ6IIuMAADMLC4GMA4D55PjPOgb0g8hwIogAIogAIogAIogAIogAIoUNIKYJwHmwiYZegCAzAAA4uPAYzz4DnFOC/pr4IMHgVQAAVQAAVQAAVQAAVQAAVQIEgBjPNgEwHDDF1gAAZgYPExgHEePKcY50HfkHgOBVAABVAABVAABVAABVAABVCgpBXAOA82ETDM0AUGYAAGFh8DGOfBc4pxXtJfBRk8CqAACqAACqAACqAACqAACqBAkAIY58EmAoYZusAADMDA4mMA4zx4TjHOg74h8RwKoAAKoAAKoAAKoAAKoAAKoEBJK4BxHmwiYJihCwzAAAwsPgYwzoPnFOO8pL8KMngUQAEUQAEUQAEUQAEUQAEUQIEgBTDOg00EDDN0gQEYgIHFxwDGefCcYpwHfUPiORRAARRAARRAARRAARRAARRAgZJWAOM82ETAMEMXGICBbDNwc/iWdPf2SrbrXYj1KR2UHvnue6GM86pj/5DnV/5Wnnh6uXVTj9Vz+R5/qvYwzuf5VfDOnSmpPdEguz/5TP592w7Z9uFfpeLAV9LZ3TPPmjkcBVAABVAABVAABVAABVAABVCgUApgnGMOpjJSeB42YCB7DCiTuPJolajP3FI3z9X4lQ5Kj3yb5/k0zusbTkvf9X7LHP+P7Ttd01yb5+o59R5TZVTZQr7fMM7n8S2s6nidrFzzpjz367WBN2WiD9y4OY8WsnfoSF+ntHRelut3slfn/Goak97OTmnpG5tfNRkf7bR7+YYUjRQZj4EDUAAFUAAFUAAFUAAFUAAFcq0Axnn2jLFCmh60zTzCQPEyYJrm6jO3ofl84UzSySG52FgrNbW1UnOmT2Lx/Oumxq90KIR5ni/jXBvlz6x4SV753XrXNF+34W1RN22eq9dUGfX/1g9sI70Q72WM85Dftj6r+MJnlq/9/Sb589YPZVPZVt/zr77+R7nc+03IVoIOc4xfZTon3S5Jb0xEhtolWhWVylOXHXN4Sprr1BuvQTqCqizEc8MX5IBaRWu6nt/W77RLRH0INVzOb7u0hgIogAIogAIogAIogAIosKAUwDjPv2lUCFOENplnGCgMA0Vjmsf6pGbH67L04fvl3vuc2/IK6SuAca5YLJR5ng/jXJvm2hzX96+sXW9Fl6sI8+deXuOa5/r1QprnGOchvrqpSHMdZf77t8qkueWir5axsXEprzzoldlUJtPT074yof9xDGe9AuW/r5WmMZF4R729QnWi0zHOe+X4kYiU11yQQbPh0UtyovGstAybT+bp8aUGq4+R9qkMG5yR3oun5PiFqxLP8EireO8pqTgckS9b8x3pHqazHIMCKIACKIACKIACKIACKFAoBTDOC2OmYWKiOwwsfgaKxjSPN0qZNsvN+wIa54Uyz3NtnKuUK9oIV0b55rL/sCLM/7O8UkZHx9xfGqjHOz/ea72myqiy+rhCpG3BOM/wW5jKaa7TsyjTXJnkqf6OVNe65vmBr6KpimX0/HS3bYrPbvzelYmxCbkz41TtmO0Vp3p9bQ2er5Hyw3XSXICcJdebVds10uBz8n3dC/5n5pJUzyNSffBr1W5UjvulCG6LZ1EABVAABVAABVAABVAABUpWAYzzxW/eYdAyxzCQfwaKxzRXY2+Usgd/KEvXfCDljY2y59nCR5xrJvMdeZ5r41xFkz+z3E69onOY67HOdq+j1NWxOi/6bOWz/RrGeYZfA9VGoDraPDHSPKgqlb5Flf/d+j8FvZzxc7bhXCUnZslwEp8ck5GxSS8iOzC6e0yaaiNSXn1WusZU+TEZm9JOu92t+Oh16bDSwfTKdfO1mSkZM4x5q72JKZk9pv6ujPRdttLLdA2MSFOK1DHTUyPS22PnY+8dNsx/rZQTMR5tHbH67BunVeauTAz02mlsegdkZPKuPtK6bz2pUtbYiwVuW73Dnla+0rPXpYq6dXRelt5hQ3O3nhm5c8PpT891GUkIk5/7eLciHqAACqAACqAACqAACqAACuRRAYzz/Btq2TY8qI85hIHiYqC4TPNEbfqkfHnxGOeK3Xya57k2ztV4dPS4iiQ335tfHIrIH//0nnVTj/VrKvpcm+0q57l+Pp/3GOcZfvHa/clnlhGucpqn81f7z5Ou0T7/jUJ1rvJ6afV73EZXHEP8yCnpcp71R3fPiG0e25sNmKleqnXa7/iAnK6zdzR2X4/USfOoXaEd9V4jDdeuyonjTj2z5AyPD1yQSFVye/7UMZPSc67WSqPitmltiBCVOhUdPnTeyonuf82ffmZ6pF2qg9r5R6sMWV2/IQ3HIlJ+7Jx0tNdLpbPhgqqz4uQlmTBUnLuuGbneWpfU34ozV91apmOXpU61Z7RTXnVWuqy5m/t4tyIeoAAKoAAKoAAKoAAKoAAK5F0B9T0+nxfntJVoYvE/TMDAYmKguE1zxVrxGedq/vNlnufSOK869g9rg0+dcsU0x5Vhrp/X9+o5zb6OOFevqU1CVV36tXzcY5xn+PXr37ftsIxwFUmezl97Z7drnHd296RzyCxlnFzlx85L6oDzy1Yqk/K69oSNQbXZPiN3JsZkpNPOMX7g3HUnctuJ7p65IQ01ESmP1kvzsB2tPX3FzgtefcnuWm+TMtWjUhGNyoGT56W5s1M6bgTnKp8edAzv6gZpueFEpTvPealjJqX1ZNQymL881+tEZd+VDis63M7bLvFJGRkbkAbLqK+XFidKXkeUu+1U1Uuz08700Hn5UpniOkWN3hg0GpVK3Z/4gJywzG2nHRVFrvs8W12jF+y6T16SMWcRIz45LNdHHB1uX5LqqDL2z0lPzC4wcqHWTk+jXPy5jp+FAl5CARRAARRAARRAARRAARTIvQIY55iW+TBlaAPOSoGB4jfNi9c4V3zkwzzPpXFubvipos51TnNloGuz/Ndr1om66f+1ua7Kmsc/v/K3GOf5+NBQX4LC/G378K+WEb6pbGtah6t0Ljq1y+Ur36R1TMpCKTcGNXKFO5HZlU3aWr8uJ1QUdsLGoCOtysRNzvVt5z1X9Xkh7RPtdUZZHfUelepLkym7ar0wc11OVCsTvkFabxtFL/s3BrXrj8iB8zeMdC/DcloZ+FXnxEtH7iwc1LbKiFGdpNmOXD9nR5nXnJfr3vDEF5Gfbl2B6W90p6bshYAj9ca4Z8RecHAM+lmP1/VwjwIogAIogAIogAIogAIoUCgFMM4xNPPhTdAGnC12BhaGaV7cxrliJNfmeS6Nc22Gr9vwti9PuY42V4a5fh9o89yMOle5zdWxuh5dNh/3RJxn+C2s4sBXrhE+28agutryyoNuebWx6Lz+HMP5wKl2O4e3lX9c5QO/7hrJevPQaLfjDI+1WpHR5QmpVDoaVAoRL8ra6teMY0yfvGQb2DNTcr2zwTKbvVQmTpkEIz5oXHc67I1Mox3+cfuMahmwzfXqc9JrmNkyc0miKsVJvdMX1UCKTU51O5F2v5Hvb0dkzsWCIZF065JRR9dIjRzvTMiR7kSTHzg/bMsSH5Ou83ZaF3dxYLbjg8TkORRAARRAARRAARRAARRAgbwqgHGOoZkPU4Y24GyxM4Bxnh3GF4Nx/uYf3wltnKtjMc4HBkQ5+fn40Agbca7SregIcmWKz/ancpq/sOo1q7yKVJ/vn20EJ0eJm/XaUc01ctrxbMUx279sHTOKObm+fdHcIuJsvHmg/pzUnaiVikhEyiM1Un3hqpf/O4V5bVTuPNSR6TpFjC6R8LyTFsWLkHfKOc8faL6hDxS9KBBpN434GWmtV4sA9oafbmHRz3vt24sFqcqp5/Uxqcp4dal2fLnbj52S1hHb+dcGfeTUOYn+o8rOg15VK3XdI0ZEferjvTHwCAVQAAVQAAVQAAVQAAVQoFAKYJxnx+zJx/U9bTBXMFDcDCwM87w4c5wrtnNtmqs2chlxnphqJdNULSo9izbNVV35fL8TcR7iW5hO16IM9CPVtYE1KNNcpXPRJvvFto7Acuk/mcrUNWtwNgY93CC6NTv1SpWc0JlbVHGd69uM5lbPO+lDyo/Vy/FzrdLRNyJ3zChwo4zfvDb7oB8POxtxnpdB/ZR1n5A6xmnTjZB3yt6x0sNExN2wVPn6Vm51Iy2NVdZrxxyiSEI7kqLcnU47st1K/5KiTFJd5oDuyqATlV9efU6uiYiteUQqa+ul7ny7dA1MStw8xPc4+Xjfy/yDAiiAAiiAAiiAAiiAAihQEAUwzovbiMuncUJbsAAD82eg+M3z4jTO82GaK75zaZyrDT3NTT7/s7zSNb91uhZtjKt7M02LKqtfU3WwOWiRR5yrb2zKFH/1jT+6prjaKLT2nydFbQSqcpqrSHQdaa6N87Pnvp7nlz3HCJ51Y9DkHOCt1gab/khpCYjmtjqXwsQ2O56Y/sR8zf84yIS+K9eaa6xNQN0NOwPanI45G2v6UsnohYOEsQQa4gHtBKV+kbvSc9be6PS4lScmzT77B2r9Z+vcIK2ucZ5o8AccZDxlHm88zUMUQAEUQAEUQAEUQAEUQIECKYBxPn+jDLMRDWEABkwGits8Lz7jPF+mea6Nc82A2hhUmeCby/7DNc7Va2ojUGWWq5veFFQfo8qqY9Sx+rl83hNxHvJL2OXeb+T3m8pc81wb5LPdz8s817nKE6PEzf47aVS8tCc6Ar1WTvRdl+tOKhGdkqWi7oL0DlyXjosXpHVURJyNRctrL8j1qRmR+KQM9nXKibpaaehXDSWkWTHbTnqs266S4z3DMjJ8XZrqq6SypsbKme6mjnHSw6g2r42NybWecxKpqpEDxyJSfuSUdLn16vpq5HjPgFzrbZeG9usyLfp5r53mhoB2nI1BDzRdlZGxMas/qpz6MuzmHU+zrunr7dLQeV0GxyYlPjMlY30X5MsjESk/fsHKNT/tLAZUnrosI3GR6akJudbbKsdrGqTljshcx7tD5gEKoAAKoAAKoAAKoAAKoEDBFMA4x/DLpzlDW/BWKgwUr3leXMZ5Pk1zxV4uI85V/WqDz2dWvGSZ4CpyPF3edaS6OlbVke5x2SqHcT6Pr2HT09Ny4Kuo/G79n5IMdJXORaVnUWa5aaaHNs91/vGvdfLy5I4H5QAfaauzzGH1pc811GduyOnjKi+4c6uqk4Zrd0VkRq5/Xes977xeeeK89MRUzpb0NwZVvZvuPWuZ5LqdA2cuy5hlKpupY8ak+R/+vpweuCGnayJSXtcud4xhTlyyNyq164vKgYZOKw1MOu3Er52TL6NGO2psARt7plPXSHu9nbdc66fuj52VDksj1eFJaXVMeT328sNROdDYKYNxkbmPNwbNQxRAARRAARRAARRAARRAgYIooL7LZ+vCm3owRWEABmDAY6B4zXOvj4Wcr3yb5mqsuTbO6xtOuylXXvndevnTn7eK2vBz1559onOeq36ox+o59Zoqo8rqVC2qjnzPC8Z5lr6CqfQtauPQy1e+kTt3zM0rJXvmeZb6qqtRkdBjKrI84S8+OSbXenutCPCJ1Mm5E44K/le1oSK8g9rxjrgrEyoKXEVwe0+meKTKJpdLrx07+tuKOA+oQzeYVl0q0tzq85iMTEz5Nv2065mROxPD0turItMnknPFz3m87g33KIACKIACKIACKIACKIAChVAA47w4DKR8myS0x7zDQH4YwDwP1rkQprliPtfGuWpDR49rI1zfq80/VTS5upkbgerX1X0mUerZfA9jnOfpG1jWIs/z1F+aQQEUQAEUQAEUQAEUQAEUQIFSVgDjPNjUyaYhQV1oDAOlzUCieX72wsW8RxQXE4Nq/DpzQeXRKlH65Kt/+TDO1Vi0ef7M8pesvOXaHFcR5uqm/1c5zVWZQprmqr8Y53n8JqjN8zffKpPBGzfz2DJNoQAKoAAKoAAKoAAKoAAKoAAKZKIAxnlpG3r5MqtoB85KnQFtnufbKC5G3QupRb6Mc6W7Srmi85VrI10b5qZRrsoUIj2LyQbGeSbfnLJQVpnnmOZZEJIqUAAFUAAFUAAFUAAFUAAFUCCHCmCcY2ia5gmP4QEGcseAMozzGV1dzHNZKC3yaZyb+lcd+4c89/IaN9JcPVbPmWUK+RjjPIdftKgaBVAABVAABVAABVAABVAABVBgYSqAcZ47k6yQJghtM68wAAMwkMxAoYzzYp8LjPOF+R0HgKapAAAgAElEQVSOXqMACqAACqAACqAACqAACqAACuRQAYzzZGOl2A0O+secwQAMwEA4BjDOg3XDOM/hFy2qRgEUQAEUQAEUQAEUQAEUQAEUWJgKYJwHmwiYUugCAzAAA4uPAYzz4DnFOF+Y3+HoNQqgAAqgAAqgAAqgAAqgAAqgQA4VwDgPNhEwzNAFBmAABhYfAxjnwXOKcZ7DL1pUjQIogAIogAIogAIogAIogAIosDAVwDgPNhEwzNAFBmAABhYfAxjnwXOKcb4wv8PRaxRAARRAARRAARRAARRAARRAgRwqgHEebCJgmKELDMAADCw+BjDOg+e0ZI3z6pMN0t37TQ6/ZlE1CqAACqAACqAACqAACqAACqDAQlRAXSuqa0bMoWAjAV3QBQZgAAYWFwMY58HzWbLG+dDIiPVFSEURcEMDGIABGIABGIABGIABGIABGIABzYAyzdU1I8ZQsJGALugCAzAAA4uLAYzz4PksWeOcN3gwEOiCLjAAAzAAAzAAAzAAAzAAAzAAAzAAAzAAAzAAA6XOAMZ5nDdBqb8JGD/vARiAARiAARiAARiAARiAARiAARiAARiAARiAAZMBjHOMc35+CAMwAAMwAAMwAAMwAAMwAAMwAAMwAAMwAAMwAAMwYDCAcW6IYa4o8JgVJhiAARiAARiAARiAARiAARiAARiAARiAARiAARgoTQYwzjHOWUmCARiAARiAARiAARiAARiAARiAARiAARiAARiAARgwGMA4N8Rg9ag0V4+Yd+YdBmAABmAABmAABmAABmAABmAABmAABmAABmDAZADjHOOclSQYgAEYgAEYgAEYgAEYgAEYgAEYgAEYgAEYgAEYgAGDAYxzQwxzRYHHrDDBAAzAAAzAAAzAAAzAAAzAAAzAAAzAAAzAAAzAQGkygHGOcc5KEgzAAAzAAAzAAAzAAAzAAAzAAAzAAAzAAAzAAAzAgMEAxrkhBqtHpbl6xLwz7zAAAzAAAzAAAzAAAzAAAzAAAzAAAzAAAzAAAyYDGOcY56wkwQAMwAAMwAAMwAAMwAAMwAAMwAAMwAAMwAAMwAAMGAxgnBtimCsKPGaFCQZgAAZgAAZgAAZgAAZgAAZgAAZgAAZgAAZgAAZKkwGMc4xzVpJgAAZgAAZgAAZgAAZgAAZgAAZgAAZgAAZgAAZgAAYMBjDODTFYPSrN1SPmnXmHARiAARiAARiAARiAARiAARiAARiAARiAARgwGcA4xzhnJQkGYAAGYAAGYAAGYAAGYAAGYAAGYAAGYAAGYAAGYMBgAOPcEMNcUeAxK0wwAAMwAAMwAAMwAAMwAAMwAAMwAAMwAAMwAAMwUJoMYJxjnLOSBAMwAAMwAAMwAAMwAAMwAAMwAAMwAAMwAAMwAAMwYDCAcW6IwepRaa4eMe/MOwzAAAzAAAzAAAzAAAzAAAzAAAzAAAzAAAzAgMkAxjnGOStJMAADMAADMAADMAADMAADMAADMAADMAADMAADMAADBgNFaZzfGB4WbmgAAzAAAzAAAzAAAzAAAzAAAzAAAzAAAzAAAzAAAzBQCAaK0jg3Q+J5zE8kYAAGYAAGYAAGYAAGYAAGYAAGYAAGYAAGYAAGYAAG8skAxrkRfp9P4WmLNzoMwAAMwAAMwAAMwAAMwAAMwAAMwAAMwAAMwAAMFCcDGOcY5+QuggEYgAEYgAEYgAEYgAEYgAEYgAEYgAEYgAEYgAEYMBjAODfEYHWnOFd3mBfmBQZgAAZgAAZgAAZgAAZgAAZgAAZgAAZgAAZgIJ8MYJxjnLOSBAMwAAMwAAMwAAMwAAMwAAMwAAMwAAMwAAMwAAMwYDCAcW6Ikc8VC9pihQwGYAAGYAAGYAAGYAAGYAAGYAAGYAAGYAAGYAAGipMBjHOMc1aSYAAGYAAGYAAGYAAGYAAGYAAGYAAGYAAGYAAGYAAGDAYwzg0xWN0pztUd5oV5gQEYgAEYgAEYgAEYgAEYgAEYgAEYgAEYgAEYyCcDGOcY56wkwQAMwAAMwAAMwAAMwAAMwAAMwAAMwAAMwAAMwAAMGAxgnBti5HPFgrZYIYMBGIABGIABGIABGIABGIABGIABGIABGIABGICB4mQA4xzjnJUkGIABGIABGIABGIABGIABGIABGIABGIABGIABGIABgwGMc0MMVneKc3WHeWFeYAAGYAAGYAAGYAAGYAAGYAAGYAAGYAAGYAAG8skAxjnGOStJMAADMAADMAADMAADMAADMAADMAADMAADMAADMAADBgMY54YY+VyxoC1WyGAABmAABmAABmAABmAABmAABmAABmAABmAABmCgOBnAOMc4ZyUJBmAABmAABmAABmAABmAABmAABmAABmAABmAABmDAYADj3BCjWFd3bgwPA+0CmKdi5Yd+FeeqJfPCvMBA6THA+XxxzTnzubjmk89k5rOQDPB5An+F5C9M2zALs2G4MY+BIRgyecjG41wxhXG+AAzZXE1+NsCkDj7sYAAGYAAGYCA9Bjifp6fTQuGJ+Vxc87lQuKOfi5M7Pk8W57wu5vcrzMLsfPmGIRiaL0OJx+eKKYxzjHOi2RcAA4kfCPzPSQYGYAAGFh4DufoyBwuFYYH5LIzu8I7ui5EBPk/geqFxDbMwO19mYQiG5stQ4vG5YgrjfAGYprma/ETI+J8PLhiAARiAARjIHQOcz3OnbSG4ZT4X13wWgiHahCHNAJ8nsKBZWCj3MAuz82UVhmBovgwlHp8rpjDOMc6JOP//7b3/bxRXnu89irR/wH1+QEukiF3NI13tM9xBN+tHejLJD5tkpGeGO9IODJqBoJuQLAPD5gskIYQoZAiD4zyEJDBgyMUTQlhgxiHDGIhjsnht4BqHYIwhYELGJhB7YoiJid187XGU/Tw6VedUnaquarftbne3+9VSq7urq06d8z6vOlX1Pqc+pwgYCDcI/OYkAwMwAAPFx0CuLuZgIT8sUJ/50R3e0X08MkB7AtfFxjXMwuxomYUhGBotQ+Htc8UUxnkRmKa5qvwwZPym4YIBGIABGICB3DHA+Tx32uaDW+pzfNVnPhhinzBkGKA9gQXDQrF8wizMjpZVGIKh0TIU3j5XTGGcl6hxfrG3V5paj0vjR0dH/FZphEHlN40fDMAADMAADEQzkKuLOfSO1jvXulCf+dE91/VK+tRrPhigPYG7fHA3mn3CLMyOhh+1LQzB0GgZCm+fK6YwzkvUOG/86CPZue+DUb2bWltLwzi/2SNthw5JW8/QDdu1rpNy4NAhOXDopPRcG3r98IE+6t/p8vrlWTnw7luyfv1bsvPQebmm2O87L0cOHZVzfXnIaxEce6OuD8pYGm0E9Uw9Z8hAri7mxqqtunyuWVpamqXl4265kWGZxypv+dhPsddnxpolL8mZlmY5c/EGxzrcw0COGCiZ9mTwhvScbZaWs5dgKUcsZdy2j3L/hcksfI1V/WdjP4XJEL5INuo2X2nkiimM81GeMMYCiFxUvjHOa+r/Q9T34bzVNsp0V9uMRfnD+/DNaWVQW++T5+XazaiGrk/O2OuZ70fPSt+Q5naffLBkkkyYOEkmfP95+WAIg7nn3V+66078pezsispLLpfF5/Va6xsy7fu6HKosE9fKkcGzUjVVL5v6lpwpgmMhzAK/c8kTacMXDGSbgVycz+Py6Jncyui23ifOXZIbyZHV7Yk358qM2XNlxq/3Sg/njDEdKRVXn6ZuT3yRK1O7Tw6s0vU+Z7Uc+Hpk7MRxynL0hAGXgbE8PwwO9kmHdV4w7UhLS5t0fJWrtsQt58DBCvc8MnuurGrqG/t7yWSfXGiqlsrVy2TBk0/J4tWVsrPpMxkY4Xnxcod/ju3oTT2eh2q7lfYdX6VuVwzHxdgyOyiDN7rlRN02WVP+lFN3C8rXSlVNnZw453OUd764NhrWMT3mDCVvSM+JvbJ93QqXoSdXyJot1bL/40/l8gjbgGI4Vkspj7liCuO8CBq3XFS+Mc5HYn6PZttsHLS+OW0bwfr792fKC++dDzXYR+VVxyyOXr+8wT/ZpuavTz54rkwb56vkwBBGu5+3XBrn5+WD9W/I+vU75EjAyI/Lq22oPyQvbK+VA+8dlXOD52XrLIzz1DovzotXykG9wUDhM5CL83lcvXsmtzK6Q+9ZC1fLgS+Gr5eXJsa5c51RKPWp6ve5uu7Qtc/w6zeapT458LoxztdK8xDXQdFpZCsvpIO+45eBsWxPBgdbpCp0XrDPEwvW1ktPjkykgabVMkvve82R3Jr0qceLas8WpJwTVdnnvtkiA8P1BZItUjXHP8c+uLUtpR32zptp9K46UZxcjymzX+yV5Y/4Wtu8zphdKSd03eWXr+Ksx9TjZOzKMaYMJbultiL6+Fc82cfhwMd/lKotm6Tq4Gcpx3Rmen0mB9T2W/4oJxhwMEINR8ZhrpjCOB/uCTIP6+ei8kdjfo9m28wamvQHiW9O/1jmlSsD+Q1Z/+Jjcrc3orpM5r1rm+e+cT7t5Vp3lPp7b8nC6doQn7hY9nyZZp83++TM0aNyJt06mgs/bzk0zrt2yUNOR0DEPiLzelJeNdq8fDTYcF1TYWjyFFYmD8dSNvgjjTTHCnUaPL7Qo+D06Ovrk3/8v3/gvNX3sT6ec3E+jyuDd7M+f4VUOhfvm6SqqkIWmJv8JdVyYZiMemnmwTi/dv26bK5+R17esDGj94Z/25bz+s1Lfc5+VspNfVqfNR/nkOdkn3R8nPuRqHEss5zzbrYZKPX2xDbOH3xxrWsQbdkklaue8kzthXtGahgNxesNuXyuLTBKONv1G5vehWpZ4BjYy6SmS5v2HdtkobNshdRGjBiPTWtwUG4cWevp5Ri5cyrlRKjD4cJBZZ6lvsufNCbw47K9YyjNBqW0mf1MapaYDtynpPydOv0k3UGp/X2llC95yzPOBwfzyNcwr6nSsZWL/0qboUG5sOdZr9Nswaptsl8/dXOgbptUrn5WtnzsH4fe9e6bLSO7lry4V57TbU3tRT/dXNRrPtMsJaYwzgu8gVMHQi5uzNKZ319d+dqbMFR9Dx+M6bYNr5uL37HmdP9RedWEHlFhVTyj2zfOH3q3xy/PyTfkPj0SfUldmhvO/j5RBktf3zV/W8PNl2fliBP6xTXWY/Om1vfWPSQHTva4McZNOoPXgvu4eU3OndRhaMLrNq+S72njfOtpnbd+3SBH5vWolJsR9+X79X5MmcxnatnskDhHzob0MfsxI8+uuek4cdO9Mo3fk0QuuCZNeIGB3DPwPx/6Fx1Oa5I8OGduapue4/YrF+fzOG68i/6Qye3fODwrNaFR5ze++lROmMf3z3anhHSJS9Pk4cYXp72wMPaj0+b/0Xx+celSRoa5bayrbUazz6G2zUt9WiProvJ3Y6BPBr7u03V3Q250mTo5LT03Io4xr861MZ684Ww/8HXC1+6am2ZgWTLhrjegzacbl6TjYzdkQVzd55KPKC1YFlHfOW7jikXzUm9PbOM8+LSKZVA+98dgSC4V4kDFJnfOETEdaU4nW7AdCLZJgzJo2g6vnbI4TbqmpwkdcyYiBFUwvQzaOJv5jzdpo9sfoTx47aCscQyuimGGorohzRtcM/fBdWul3EljrmQ0iv6LP2pTba7M3X7ab2vtvIa+lzSzvcaEnCsL/vhper0i+DLMqHNjyvta6KkH75yo4vCnXgcVSxsXlc+SZmjwktS+qDtfnhxi4EiyW2p+rdfdcNC7JvLCHKrrJO/aSrV3p+VCmKPWSt3WPCs7OzR3eh2PR3P9pI5179qrTwbsa7VAu9ssZ7qsa7NQGxFV57leVkpMYZwXAHBDAZ2LG7N05vfF3l5v0lD1PZy/dNuG183F73Tm9LVDxlSeJL4ZHmOcd+yQadpQLm+2LtpCTBx51YR4UXHB/fXO1T0vPzaGtPNZJj+e+uOIGOd9cmTNTG12m7Qmyfemr5UjxvD2RpEvlqp318rMu/z1VHz17z1aKz2DPbLn0eByJ/a62ver7kjycF57ah7zTCJv3UCedXpzd/kXxzfPy86Fd6dsV7awVs7p8pv93LfxqJzZvljKnDQjRsBbeuWCBdL0eUQLtICB9Azsfe/9lHZNLRtL3XJxPo/Lf6zJfaLSG3FTZUbXJLvlwOuPe8u9R6AfWSG1ZlTe4KDEppn8LPLx11kVe7P6uP+7te975vm2P9XIwSMfBd5qmTHO1bpx2mRreV7qM61x3i21+mZv+Tt7pXJx6JHkOSvEHvnUc3C1zNVmj1vnC2R5xTLNgW8sefVu79twNL9SavZUOB1RHjcq7MGWNn8C2THiI1v1Sjrp29Lxok8ptyfxxrnVzs/Z5I/i7YoKk7FAlv+7FSLqi3pZ9Zg2m3S7MqtihWcQe2EQTNsRCo0wGLG9alPUeeSCN4p7eG1cCqvXWqRqvptHt8MgIR3vuG3eg280Dy9Ui2e4Py5bzvbJ/go33Vkbmv22L+o+aKBFqrROs14c3jmyZJn9ut7rmJjx623SkS70RQpfPjP2Ocr7bkYUJ/ukZYv/xIX5f9bCTXJiYPy0iSXL0KA1X8vsZbK9IzQo0ByrXudasC2bMXuZe/3UWyfLzZOb4eunetUeWgZ94P+5MsNhzeLRHtjijVC3Qu/FtInBzs78s1kqTGGcm4OkgD9zcWMWZX6r0eUXey/L2c8+84xz9V0ts0eeR22bcmGSQz3TGeeDPbUyzxjD2kweHLSM861nnRHXPWcPSdWjOlTL1DekLU1+jUnsTqipG6eOHTJT7+d70xdLuQoX8/LzluHtm8hefr//kLz6nhpFXiuv/k933/etP+ne2HvGuZqE9D6Z96IKQbNKFpoR9BNnytaOHvnghZky7Z9MiJkyuXv6TJn285kyrcpNJ5zXnrrfyLSf/1Qb25Nkwl0/dddX2/x8ph/exjPOr8mRV7X5P/V52br/kBzYv0OW6HwsfM89yXj7+X6Z1SHgl3kseWBf+T9hUgfUQaEzoJ4a+j//639LMc7VsrEM2ZKL83mc9p7ZaV+YD96QE1uMQW5G19nLFsjideqR8rWy2MQSnV8pLfqmMTbNN3Waj62WmqZmaWmq9gyU5Y0xNydpzrtxZVKPhL7+uzcdc1x9qt9m3XT/mXWy/ZmX+pxdITvNUwH6058Y1Lohmz1XTAiGynJT59Zova/qpVzf/M1aWCHbG9Uj71a9Wya5V+/WskHLnJjxyFNSXqW4WS2LvRtKEw/9hpwYIz6yXb+kN77PbenajHT/5YqLsWxPYo3zZJtnLM9YVe8ayZbZPPf1ajnQ0iwH9phOtxWy35nY0jKl5rihNFT4gzXP+513aY3za22emTzjkWWyRoU2WbfMC4Pim9rDaONizjEDJyp1h+HjslB3LgbN+cy4v9G81u1k1OFZeup0p+Mc0/ZFpWPrtFaah2nIpuMy3X/Fz6ylmzIj5yyQ59ZVywFrUlCvjNa5yWXukuxfqycTfVJ//qvP5awtblx6v/6elapGNYq4Tqqec83TqNj13v5iOCvU/9Nxku6/XJVnLNu9ywcrvDZFdYyoa6SdTaFJQc9skwVPPu6v98jjehLR1bJfhXK6uFeW/6uaUHST7FScNG6T8oXaZJ//lpwZ1LzpDjpnPws1d79XrFltmH19nmKcW8w/tkK2q3017ZXtVRVS2ZjbpymHW9fpuEn333D3k+n6uWIK47wIGrtcVH6U+W2W7dz3gWecm+/qPwOrWc9eZv4bi0/PiJ4YZdT6JrkZhW0b56mjrh+TqtPpb+o9k3iiP+K8baMZWR6Mj56at5Oy/n53VPeS/VY4lOZVroFzvzbtLePcHv1+reE3ntHz6lH3Aix1H/6FWVReA+X3OhPUNj2yc25oxHnfflnidAjMlKqzfrrnqn/p5mPJfukbHBRvPz9fJR+c7XHC2Fzr7wuFn/G3Hwsu2Ad6wwAMxDFgh2gJnwfGMmRLLs7ncWX2zM45C/RF/1OywLpZ9EasWCO5AjeHZ96SB/VoGWN+e2naF/ve9k8F4rT21OpYksZ8ydL11icdnf6o8vf9UeX2iBe1Tpwu2Vyel/oMj2AKTAxq3ZC90exr4I2MNCOeBsUzCWY/KzVdftvh1bFlkkct843zYMifC398So9Y16OzxpiPbNYvaflcjFctSrU9sY3zWfN9U3Gu6TBVT6foUF4DByvcY/rJbdJhjfyu0aZi+cE+x0xy4/nOlUBs9BQTc1D8tmOuNxmft4/Zj8uWMz53Z7aaTj9j0GfexkUze0N6WjZZHXxzZaEV+sNrF80o5Njzlm9qeSPMu6p1rPS5sqY5FP5Dp9NTt0Ibco9L1YmRhVwoWWZ7D0qlMSit86Ca7Ly2w9Iyijm7HtUEkSZkx2OVejT5admijc5VTVZarfoJPccQ9bmMZqt4/i9ZhpKXpPmN1KcKZsx5SlbVfWo9cWJNnjxkWzAog4YTMyp90L7G0tdCHoNWG2ZfS6cY5/56fsdh4TJWCkxhnHsQFy6IubgxizK/zTJjltuftklu1rOXjeUJJJ1xrExiL563ZxL7Zvp9j65yJxNd/4aUP2XCp9wtC9+zYp+HmPBMYs84jzCc9TYpefMMcWsiUzU6fclD2hDXZry33iQxBrmj6dG1Y2uce/t7SJaofOp3+aO6o0CPTPc08UaqF+7xM5Zssi84gIHCYyAqREvYPB+rkC25OJ/HMeebneHHTZ+SyiPWaJXYm8zUGwcvTfti39s+OGll5Yva8LDXDZ1f4/I+1PKwSR64YB+DEC0mf/mpz6DOatI5f2JQ/0bLfSTYHI9p6tIyyFW5vDq2lkct882v4E2hZzyZG8g88GHqh09T/3ymY6EU2xPbODchKbzPJyul+aJv/HrH/+IKa5LLtfKcHfLEO859M9zRPGp5xDJvH1a7E7195m1cap0nAk+/VJrwZFYnwZnt7nnrwaHijn9VJ8u1eeub5J/KTjPhZ0SH8Y2PN3mhsZ6rtULcjOC8WJrMunGge07slcoXF/gjgp16UOFydDsXwZfPgs3AWmk2k8F6puXj8twb1kSuq81kkn7oMj+t4m5XS5YhNanvFy1SW7UsNcScd9ynXjMF692eW6FNOhr10yfmuicrxvmgdLxjOg7nyqz5y6SyriV6rpoRtCHB8mSH5fHOFMZ5gYCWDt5c3JhFmd9uqJbeiFAtvcUTqsWKWz5t63k92so3zgOTgw5ekwMv6rAn318bG67FM4lHZZzHxCb/+Q43bnjBGecx+X3xkDOq3NME49wf0VcEbUm6dob/snPRgI6FpWNciJawcT5WIVtycT6PY84zIp6rlg41IdY5fzIyb7S5ardibzJTbxy8NG0z3NreM16s0WAz1h1MH+91BG1n+NHPuPAtcdpka3le6jNsLAX0y9xU8uoylF7U8qhlPjeZGufhDhz9Owd8ZKt+Saew2vNc1Ucptie2cb645rQz+V3HHjO/QfCY9o//6GPYMY6t84AXkiXu/BKxrr+PkEGZsm7mbVwKL96IcP10VGDksTJR/bR9Mzz6GLjcuEI/WTNXHjRhGJ58SrwR+7NNKDS9/SjimqeUY3DQCVNmn/fs74rnqG1ysWwsz4Ep+f/qtNSu9UcPm5Ar/rkp1IkzaJnmVmeJk65nnEczPmOoySQD5+FoZlLyn+dtSrPdC9VNsk/O1K2WBSbEnDevQ+r1r1d/A22y3QpBFbzu9dvOlEEEXn377cwM+1raYtC7Rk/2yYl3Qgb/nKdG/LSKVwYvLyE9Rrl8vDOFcT5KQHINoEo/FyelKOPclKWYJwc9t9WM5P6xrD9pGoM443xQvBAkkWFf3O09k9gyzr1JOo3xrTlKGXHuxVy382PyZX0WinHeulbHLH9ePuiz8hc6TjxNMM7H7OLUHJ98xnOJNmgTZiBdiJaweT4WIVtycT4Pl9n89owI68LcjKabMadCDjhxaQdl0JoIKWAWJJul0hjg+lHVqDT97UNGQei8YfKVrU97lLmZEFQty1b6maSTl/oMGd3BfFo3ZIHHi1NvAj0WZgfj8Xp1bO0naplvTvg3iiovKTeLHl9jy0dQF9pG9EjPQKm1J7Zx7ps0p2WLmbRyVb1c1m34iS3aTIwYRe1xddYP7RU4j6QY39Gdtd4+Qu2RHwLBmKCZt3Fe3sy5yMuLZc5bhvaMR/Qo5rQxyhVHVh7MOTLi04Q4GwwY9CY0SHoeU/JuymB9lh6zEZpFXKf45ybDjLtd2jA5vXv1JLbWyHVL60zqoxjXgSGXjZY3TIeJaRtSr5lM/Xrho+arJ3MScuNGQgaacjPi3OxzMNknHU3hWOoRx0MBMDuemcI4LwDAvIMiJi+5uDFLZ5yrkefqf/W2JwU1+Uy3rVknl58p5rTqee87L0e2Py8/NhODBgzdGOP85nnZamJ8D2vE+aCc2zpTh1D5qbx61I9dfm67jgXuGfHnZessd/T2fS8fcuKDB7S5qRu9YRjnfXXP630H45CrdD1D2zP5Vfp++f2472p5RMiZa4ek/Ptufh/abkbsWw2zzq+3n4DO1noxLAfKzjpjavCgPXyWGgMnTn7shboKm+Rxv9U2udQpF+fzuPx6ZqdlnA8OHJQ1emTNg2+2uCPBrzV7y2atOygDOobtQPNa71FoY4R4adqjr6ztn9vzWap+Sf+R/7i8jnS5/Vio+j7SdEa6XV7q0zK0U/NtGTpDGOeDVgz7uRsOygX1VEJXi2z5dfgGMjp8i29ODGGc55GPVH04D6BJPAOl1J5EGueDg+K3+yoGt9t23zhizgXLpKYr3J7fkEF1zki2eTGiZzy2Vg509cnA15/Jie1mFLtlYnoGtr/M38dcWdNk5p5KSPM60x6ZDr5htHHh+wyvE+9Z2XnB4mCgWSqtifyGDKNijwzd86kMqLbTex+USjN6taLO6XxIa9iG8zjM36XDbJ9cOHdJBm5Y9aZ4bTUTvVoTX0fwZU8Iu+pgVJicz6RmicuaE0/ai+Wv95fD6yOhmCkAACAASURBVJh8t8mlw9CgXO76VHoGQm3Y183+xMTeta0f837G6wet2OdW+2PPIxMR49yftyE4/0+g482eN6Lrj7JYd8D5nZlB3v2ORGPwh/4fZvuRK/bGK1MY5wUCWDpwc3FjNhrzezTbpitnpv/5xnlMOJGpz8sH5+2GxDKOjbEe+CyTeTXDiXE+KINf7pcl2mCeMPFu+fHPZ8q0qXdbJo0/cakyur+n9/e9f5op09S6Zn1jPA/DOB88+Ybc5+W/TO6eep98T8dz9wztkRrng4PStvGnXjnKplr5/acyMca7tx+T/yI4jjLli/XsY4fv8FC8DKgwLf903//rtWdxZrlZfmfZD3JuvObifB7HqGdy28Z5YESwbx74N/ZzZda/qoniHvdM8xlLquWCvon0RynPlVmPLPAmdgssd7bXk80pMyJg4GaXJ/VY6Iat/yZvVlc7j67HaZGr5Xmpz4iRjepRYfdGy7qpC+geNXrKemw9Mk3/xsxjyTbtPXNiCON8cFDyxUeu6p10s3scF4qepdSexBnnAVPHtP1JfyT6jNkLZO6T/mSi6kktE5rFNyeN2R38NOv5nW7+toFR2WYf1mTW/gSew2njQpxea/MNMjVpdvlaqVq3IjBptht2QZdxdZ30RNzfXNhj4l4/FTTgnXVvSPMGU27VNlptb2Q7667raROxv3THR+kwa+loJjy3OjsCT9F55ybDV5tUmc6MqDrQ10iXD1Z41z32hLnOpOqh66h0dVJs/5UOQ/YgAB1iaWEwVr4z0bFzDPqT/zptwiOPy9xH3Gsd73pozrNSWVcntVsr/FAvVozzQespHJXGg/+6QGbp6zIvjdkR19yh6zkVCmr5OhV3f60sNpM36065QmVtvDKFcT7ME1Q+AM3FjdlozO/RbJsN/eKM87Kpv5QlVYekx4zi9uo2xjj//n0ybeFa2XPajGwIXWDp7T2TOGBGD8q1sztkoTKTjSk+/Teyc+tvtEnuG+eqzOfe+43MvCts9N8tM1/Vo9CHY5wPXpO2ql9KmWeeT5Ky9Scdwyc6r1b5vQlTVVkjRpzrk0Vb1WNyt9cxoPP9/ftkXrU7Ct3bD8Z5zo22bBwzpBF9bKMLuow1A7k4n8eVwbswD9/w2SbIr/8oPY4pnpCOPRUpEyU9+OI2OTNgcaIea19oTIEFsuWM/i8qDqO6QZ2zQJ6rixiF7p2frbSLcFle6jPqxj90o+Xc6A1pnKtRon3S0Vgpy5UR9nyFbGk8LQdSHlm2bzZ9M903v4Y2ztV+UuJ0lgAfcccmy4v7uM9V/Y1lexJvnA+KMnzm6nbGG339dZtsT5mQ0Z2wrtYavT3QUSeV5cpYXyblW+uk42ClFwvcM4dTjE3Nw8CnUrMqaGQ555B32qJHfGbSxoXPK73NsiUiPrGaeG9L08FA7OJZkeaUPzJ5xvy35Ew4fTXxYLMJ2zBXFu6pk6qYNts16UdnnOeKxUzTHTtmP5WdS0JsaF0ffPEtaTGTfKr6SOHLMt2j6sK7RrohFxrXykJjTnrrLpCFbzZbDNJ+ZcpHJuuNHUOD0lHzbMp1rjoOneO/9VLwnv6LelnlXe+q69kVsl9xFrgOniszHnlK1tS8pScLtq+HEnLmnWVeZ4yzn61t7j6+2CvLbc4eWSaVjc1Ss8ptD9yBEH3S8qYfw9+0F7OeD/Ee0QZlovt4XidXTGGcFwFsuah8Y37X1P+HNH50dFhvtc3OfR84oVzG80GXadmu9fVJX58friXddu66av0+Z5LNdOsO/d81N52UjoJsndDd9FVeMy3f0HnOVt5IB61hAAaKj4FcnM+zykEy4T9yfi30OKt1vXRjICE3wo8yq/+TN/ztv04Eb0Ks7bOa5zymW/D1OWxtbvihEZ77Y+Roy1HVXYnxMSqthl13xdceok+wzoqiPVHxfE1YkjTnCFO3von8rNR8ESyvWSfl85of+iTyPJONY0Pto+u0nFDhP8KhG9R/GZQtJd/ZyFeRpTHmzDrXKJek4+M26biYq3q6ITcM41/HXOsUWT0VMqtjztCgW78959rc43+oa1XVHoTbCJ3GQCZ86OuelLbMu94e4lrZWy8qHxm2qSXGa66YwjgvApByUfnGOFcG+EjfTa2t4/6muJBPNOSNkwUMwAAMFBcDuTifw0D+GCju+vxMmuuaHfPBuaFLJuRCS6Us1KPsFkbFqy+Ca2aOh/wdD2g/Ou2Luz0ZlAtH9kqLMqId0/mG3OhqlqrF+gklFfaF9mPc3TcXO7O0WaNrs7KhHwzlvw6yUY+FlEaumMI4L4KTeC4q/2JvryjjWxnoI32rNArpICEvNLwwAAMwAAOFzEAuzueFXN7xnrfirs/4x9dnPbdNzlyjLRnv/FK+wmK8uNsTO6STCeelP+c8K9vPxj/BBIeFxeFw6qPYmR1OWVk3N5zCUG50LWVec8UUxnmJGuelfDBRdhpoGIABGICBfDCQq4u5fJSFfQ5KcdfnDek5sVe2rF6mJ8dTE+KtkMq6Fh33njYCxmFgLBko7vZkUAYvtjgT5S3Wk0uriaaXV+2VExcxzceSo7HcV9EzWwQ+0FjWZz72BUOcZ7PNXa6YwjgvggYzV5WfbUhJj4YPBmAABmAABuIZ4Hwer00xckN9jq/6LEYGyfP4YZD2ZPzUZakclzALs6NlHYZgaLQMhbfPFVMY5xjnhFspAgbCDQK/OcnAAAzAQPExkKuLOVjIDwvUZ350h3d0H48M0J7AdbFxDbMwO1pmYQiGRstQePtcMYVxXgSmaa4qPwwZv2m4YAAGYAAGYCB3DHA+z522+eCW+hxf9ZkPhtgnDBkGaE9gwbBQLJ8wC7OjZRWGYGi0DIW3zxVTGOcY54w4LwIGwg0CvznJwAAMwEDxMZCrizlYyA8L1Gd+dId3dB+PDNCewHWxcQ2zMDtaZmEIhkbLUHj7XDGFcV4EpmmuKj8MGb9puGAABmAABmAgdwxwPs+dtvnglvocX/WZD4bYJwwZBmhPYMGwUCyfMAuzo2UVhmBotAyFt88VUxjnRWCch2HgNw0MDMAADMAADMAADMAADMAADMAADMAADMAADMAADOSOAYxzjHNCtcAADMAADMAADMAADMAADMAADMAADMAADMAADMAADFgMYJxbYtBDk7seGrRFWxiAARiAARiAARiAARiAARiAARiAARiAARiAgWJhAOMc45yeJBiAARiAARiAARiAARiAARiAARiAARiAARiAARiAAYsBjHNLjGLp7SCf9MzBAAzAAAzAAAzAAAzAAAzAAAzAAAzAAAzAAAzAQO4YwDjHOKcnCQZgAAZgAAZgAAZgAAZgAAZgAAZgAAZgAAZgAAZgwGIA49wSgx6a3PXQoC3awgAMwAAMwAAMwAAMwAAMwAAMwAAMwAAMwAAMFAsDGOcY5/QkwQAMwAAMwAAMwAAMwAAMwAAMwAAMwAAMwAAMwAAMWAxgnFtiFEtvB/mkZw4GYAAGYAAGYAAGYAAGYAAGYAAGYAAGYAAGYAAGcscAxjnGOT1JMAADMAADMAADMAADMAADMAADMAADMAADMAADMAADFgMY55YY9NDkrocGbdEWBmAABmAABmAABmAABmAABmAABmAABmAABmCgWBjAOMc4pycJBmAABmAABmAABmAABmAABmAABmAABmAABmAABmDAYgDj3BKjWHo7yCc9czAAAzAAAzAAAzAAAzAAAzAAAzAAAzAAAzAAAzCQOwYwzjHO6UmCARiAARiAARiAARiAARiAARiAARiAARiAARiAARiwGMA4t8SghyZ3PTRoi7YwAAMwAAMwAAMwAAMwAAMwAAMwAAMwAAMwAAPFwgDGOcY5PUkwAAMwAAMwAAMwAAMwAAMwAAMwAAMwAAMwAAMwAAMWAwVpnF++ckV4owEMwAAMwAAMwAAMwAAMwAAMwAAMwAAMwAAMwAAMwEA+GChI41x4oQAKoAAKoAAKoAAKoAAKoAAKoAAKoAAKoAAKoAAKoECeFMA4z5Pw7BYFUAAFUAAFUAAFUAAFUAAFUAAFUAAFUAAFUAAFUKAwFcA4L8x6IVcogAIogAIogAIogAIogAIogAIogAIogAIogAIogAJ5UgDjPE/Cs1sUQAEUQAEUQAEUQAEUQAEUQAEUQAEUQAEUQAEUQIHCVADjvDDrhVyhAAqgAAqgAAqgAAqgAAqgAAqgAAqgAAqgAAqgAArkSQGM8zwJz25RAAVQAAVQAAVQAAVQAAVQAAVQAAVQAAVQAAVQAAUKUwGM88KsF3KFAiiAAiiAAiiAAiiAAiiAAiiAAiiAAiiAAiiAAiiQJwUwzvMkPLtFARRAARRAARRAARRAARRAARRAARRAARRAARRAARQoTAUwzguzXsgVCqAACqAACqAACqAACqAACqAACqAACqAACqAACqBAnhTAOM+T8OwWBVAABVAABVAABVAABVAABVAABVAABVAABVAABVCgMBXAOC/MeiFXKIACKIACKIACKIACKIACKIACKIACKIACKIACKIACeVIA4zxPwrNbFEABFEABFEABFEABFEABFEABFEABFEABFEABFECBwlQA47ww64VcoQAKoAAKoAAKoAAKoAAKoAAKoAAKoAAKoAAKoAAK5EkBjPM8Cc9uUQAFUAAFUAAFUAAFUAAFUAAFUAAFUAAFUAAFUAAFClMBjPPCrBdyhQIogAIogAIogAIogAIogAIogAIogAIogAIogAIokCcFMM4t4bsvXpIjJ05K7YGDsnPfB85bfVfL1H+8UAAFUAAFUAAFUAAFUAAFUAAFUAAFUAAFUAAFilOBnSfflnk7Z8j/s/bv5O9W/o3zVt/VMvUfLxSwFcA4F5FLX30l/3642THKDx5tkfbOTrnwxRfOW31Xy5SRrtZR6/JCgXgFrsonbeek4exXcit+Jf5BARRAARRAARRAgaJVYKCzWZoOt0tvsmiLMOyMJy+2S9PhZum4MuxNh7VBzrVNXpZTh5ulqTMxrHyxMgqgAAoUkgIpbeWVTqeNPnWxeE5MKWUoJIHHaV6UKa4M8jtW3Jb2rdYpTgP9llz+uFGaj34iwz3LJzrVdm1yeSgj68on0ny0Udr/MtSK4weikjfOz3V1O6b4/25tla8T8Wip/9Q6ykBX2/BCgWgFzkv50/XynVWnhWcUohViKQqgAAqgQC4VSEiHMsUOd8pALndD2mOvwDeX5VRdtWxcuUSm/2KWLFpZJTvq2qX3m7HPyrHXJ8mEifNl18Us7TvRLfXVq2XpvFky/RdLZPmGrbJLMZyHssWVqLdmvkyYOEnWtMatkZ3lmWjrmi3qOI96D9GhcXG3PDxxkkx4/bib4SvNsmb2NHlgU7sMbTclpOn1OTJ1dpWcGnrl7AiizbDosvrlz3WHRnYKQyoFpcA3CeloVQwNccwUVKbJjFEgpa1sXe+00Q/XXDarjN1nbDuVnq2UMoxdjktyTy/seyJglt/52u3y2K7Z8krjMuetvqtltqmuthnZq186j2ZoRI9sB+5WnZvl8ZfvlmcajPt0SWp+qzoFXpLhXq60blPb/UxqeobI0PGXHI3m7TP7HGL9cfB3SRvnf/nyS8cIb/vkk4yrUq2rzHO1LS8USFUA4zxVE5agAAqgAAqMnQLHZY0yxSaul2M52OlAa7Vs3NAoXTlImyTjFUi2b5WH71L1Okkm36vM5Vky/d4y5/eEu+bL5vaxcjHdPGbzZj/ZXiUPTFFlK5O7ZwTLFjSpu6V+Q5XsaI0f6BKv4Oj/KSTj3NXf5UExEXwP0aERNs7PbpWpKo15u6XXkykhx6qrZOP+8GChTtn8E7W/IfbhpZOFL9oMC5YxXObcd2hkoSQkkXUFRtgmJC9L0+YlMt1pd8aY56xrULoJppyH8micm/NDajuVvq1MKUPpVmfOS26b5socf+fEW7H7VP/ZBvqIzPPPNstMPar9mYb+2H2N9o9E02Ny54rb5M5tH+qkMM5Hq2nU9iVrnH/77bfy3oGDcvh4W5QuaZepbdS2Kg1eKBBUAOM8qAe/UAAFUAAFxlaB3BrnXe+qUbe5MeXHVqci2lv3bvmVMnh+8oLsOhs0jQfO7palysic8oTsCnucOSxi9m72u2XH7Jj8JxMycN0uxHGpmDhJ8jKaUESMMRI08+38Zed7Jtpmsk5sbsLGuYgkEwkZCPS9dMuuR6xR6XZiql4SgZXtf3P+fazqIecFYQdZUGAEbULvPlmk2tMp98uvXt8tGxdjnGehIvKSREo7mHfj/AWpD56ih9QlpQxDbsEKI1FAhVwxo8j/efMP5NLVL4ZMRq2j1jXbDTdsS/s7/yh3vPyYLFOjv3/7e8nlcxDJ/n5J/tUUCePcKJHNz5I1zjs/73JGjg9cuzZsPdU2atS5SoNXnhX49q/S//nn0qDiiv+5V26FH+lV/1+96i9PXpf+qzf9TCevyyWzfVu3nL8ZSuCbm9J/9brcMn0kN69K/3WvVRL55qac//M5aWj7XD65opbHGOc3e6VN5VHtw97ezwnfUAAFUAAFUCALCkQY598kZSCR8MIwJBPdbozj1phQGNf1/4fbpStkkLk3eaulXhlt6m0bm8mE9HYe1+Ej2qXL/k+VbLj5cAy9y86j9Ke6E5IMnaJVemZ/xzr98mVBxAJKIilNFWpk+TTZ2B6TrfYqZ8Tw5Ipmr47letDcTDFGryekq12HuVAcxPmgpk7buwN1nfZm/7pbZ02Hj0vHlbiEdVl698mv1GjnlVbeY4op2vB9eHuny57FtNrE4/pws0Tx4GhgmLTYiYuHm7zSKcdUKJT2boe9aMM2KQO9er3DzXKqO1xefewZdiNM52S3Gzvd5DmttlqbTNbxZEz64SicYzLFOHfzGDiWRbcjFY2+1roMjo6hdsHdV1IGzPGvNfPy4HwJaeFxkj6UQTCN+A6M6HxFlc1viwLcezpF1WM4F0X827TDhklTFIfNcDvr1+mxzsupbbDZNvIzKQOabXMMpayWSTvk1ctx6QhPqjBEm5CyP7UgcVzqG/xzX/pjaajjO3IPLMyRAkO2lQHj3Gc3ro23sxk4PyTN+THUNplro4hrp67ts0Y0qCCWP3PudcJxDX09FT7nq7IZvbzzUsT5x1nPXBOqaz5zjrTFGQffTUxzNYo8E9PcFFmta0aeqzQyfn3bJptevk1+9E6bXG6YK3es+B/yhwv+1slEvyT6o+ODp/x3q18ud37oxBRX8ce7w/blX29Jor9fEl5yaYzza/3SfUaFj2mU5hOfWNu4eQuEarnVL50nYkLNpAvV8tdbXn5bO/slaXw0v/hF+a1kjfODLS1y6NjIH2JW26o0eOVPgVtnT8j0Z+vlOyqmuHk/c0DK26wWv/e0TH+6Xh491CMfVh+Sv3fWaxH1IMsnew7I35rtrM9/abAmgD3dIt95ukFebeuRHZv0+iZ++aUz8i+h/f/DusPO/vwY5zflw9+n7ufvq8dwWFj+qog9owAKoAAKjLkCEca5czM5VSre3S3LZ98TDOtw1wtS7012mJRj62bJ5FDoh7IN7dJbtyRlufNIso6T3PF26nYTJt4ji/Za57uM8yEiV47LxnmhvE5ZL6e0nnboEvNo9OQZ6+WYdQkw5tLnYofJZlmeEkYjvCM9antiuTRp39a5Gf9hlRzr3C3LZ7ghXdyR2gmpXx7SVaU/ZZasabVN34Qc2zBfygIslMmak+6+o2/2k3Jqc+o209cd9w39cNbFHTE64Yer09Rdu2zUYWpMXbuf+hH4RKMsj/g/yMNl2TVvkkxYtFVqNzwhd3shGtRo0zKZvtnulYg4Du6aI4seV8aIFRLk7FYr1IMfOqRs0T4/lJE29pbWdVp6mic2uqV2UbAuJt+7RBapfA4RCiVa/xRxJdm6PpTHe+SBxU/IdFWvJsZ5wEi/LLWLdAigQN2bcmsdQ0+dRB2PDlNHreGXej+L3t4nGxfcH2xPpsySQBWkFsVbEt2BkZDaRUo3/xhwNmivkvtVOR7fZ4WhMeb7VN0ZFcXtJHH4sbLvZaDYv2hzMfzkRIqu3ftkUfi4mrJEav14PvFKdDd67Y53zN61RGq900Fm7VDX3iWhNmiSTF6k6nKINiE+Zyn/xB5LmRzfKamxIDcKZNhWaranLy33QpsZ/qY+ny7EnH1+CJ3DpsySjQ3NqW1W4NpJxOXItO2ZqxDF33CupzYe7ZRdy/X1lwm3db1dNoeunybPWC0VztMVdh67pd5s67X3oeu2zItSsGvao83ThWcxBWi/dCIwKajaZrijzpNHlsmdK/5RNp0Wka/+JM+suE1m7jlvdiHOaHT1/xlvkfvl2w9l3crb5I4Nf3Im9uysud8Jw2L2735+V56p99OSFBM7yjjvl4bffdcrh5feyvtl3XHPcRfXOL9flv3uZ/KDwOSpd8uyA+n26WY/eXqDzFP5t7a9c/VL0ho2+0PFLoafJWuc19T/h5zu6BhxHaltVRq88qTAwKfy6DP18p1ffyTv96gR5N/KrSufy6svKxP9gLz5ue7a0sb53z5TL/etOy47PlKjvi+JijJ1/vSn0tZzVfpNN9hAt1SuUtt/KA3m3tExzuvlb59pkOm/+1h2qVHjZ7+SW992y6u/rpfvPHNI3vzzVVeEm73y4Xsfyl3KhDfm+p+Py39/ul6mv3/JGrV+RT7p0dvkST52iwIogAIoMF4ViDPOlRG0RDarkXbOOS4hHW+7kx0+/K52M7TJ9HB1t290qlGh3Qk1nFcGEp2yQ4VvmJg64ryrdZ+oUeHeCM4r6sYtZGTpm9oh86FMESf8yCypqOuUXj26vbez253w9EqjLJ0ySe5fuk+6zPlahzMJjLoeD1Ws62TyOtvYTS2Ye/NtjEBzE18mk++dL8ur9zlPAbij7hJy6lCzdPT6I0uTFxtl+Q8nyYRfVHuG76lN01xD+ZV9zrrO0wW9ndKlO1mibvYH9r8gkydOlaV7fX663n1CJk8sk4rDpqJS8+7ua5KoWO0b1WSnEas6owEbVjvGdcqI84Qasa04MRsmpXd/uWOYTt9unDpj+N4jD7++W46ZkeG9uuwTV3tzArjlmCRTKxp1XtTIxUZZ86BrKHuG44XjUqtG4pv9fpOQU/qYWn5I50WbxZOn3CPTF1fJrgY1yt+duNdo/Kvt7e4kqN8kpau12g29k6FxvuOsfvLDPAFij8LXx8mEn6yW+otuftQo+vp1c1zTOtI412Fbzla7E4imjDg3Olrmi70frWtSdXw5es2RHWaUnTHo75ova2qOeyMbTV1NeEVPVpqKSGBJisGr/x2oW+Iw69WPiLijQEPtkCSkfukkmfDDKqcjzq5vd7RlUgZaddz92f4xEchEMf/IyDg3Gq2WJqtjdaC7O/L4DMqh2+/ZVXLMbJs4LmtUm+7pmUE7lGiUpRMnyf2vNPuTBKuRwBcuO+entG1CMENpf0W1Zc4GmRzfaVPmz2wpkHFbaa4xHlwv9eYptORlqa9Q57NJ8kDswDXTrk2TpdXHvSftBg6tdjvepsyRCq/NSkpXdejaSfQ5959Xy67D+2SHmoujrlkyGekexd+wrqem3C8Pr6yWWjUy/aQ6NpJy7PWpzlNqqsPWeVJPHTeH1+u5RPy229V1jmz05g1JyLHXlVZWu52tSsxjOvN2znCMXDVyfKiXMs2/t+r/cNa3Q7OYUecqraFft6R5y+1yx8uviXvl1i91G25zf5vR1xc2y0MrbpMfvRsMG+0a7rfLK0dcM7v7+J+kvcsaTX6lTd52Jv5cLM3G787QOG9vbpTOS35Il+Rf6mTly7fJHas3i7lSco3z2+WhP9RJ51fuDtR6r6xSZrg1aj5ln6qDoE6WrbxNfvTGn6Tb5O3C7+XxlbfJnVsa/fuKoQUsyDVK0jj/z//8TyfUSseFz0dcKWpbFa6FV34UOP/eAXck+FnT+uh89HwsU5+ul7/9N90jpo3z72yxesjSZPn8B4fkO08fkh1mNIU2zqd/YI1CF5FbrR85o9X/5VDYAA+FatHbP91ihXdJs3/+QgEUQAEUQIHRKRBvnKfEhu7e7ZpjxkDTN52e6ZeSEXNz6d94paxiLXDjoVsTY+n0h8pH8vBqx9iLu8l1zbAlUmtMGb3PU+uUsZlZ3qxsFvbXOM1CuQ6bid7NuLkbCq0f/nnsFWUuau2SzVKhRmR7Jld4bWPMW3Ur3bLjF2pE9z63c8PbpF3WqLQMY95y+0tSOmrK5QFvdOs98sDSrdJkrsXMqhlq4a6uR7J7+41n1y27KYseva9NVbNr9RnW2P7P+66PKY9xYxaHTWGjcYpeUdp6qXtf3PpVdRZ+m3KIdFXPkQkT/c4Ub2OTJ6NN+LdaMWqZk0CqjrH7uVAtD6jJbNPtx0lT15UZLellNPpLbD1c2SeLlNG6yXQyuXmd/vp6WTqxTDxDXT/Fcf8GtV58fbvlsraLzk7xLdXHkaeHLkFQV13PVmdapgVNHiqP5K537xNDP0lht0OaQb/zKyIHw2oTIrY3hucQHVXeluHj2/uDLzlTYDhtZSwP7bJRdQ5HtOtuvlPbNXe5vp4Kt00R7WN0m1wm6Z+4yqy9V3mJvZ4yAx9MBegOp9RzcaiMgXbQbKxOdG74NO8cZv1VrF9NmJbHds32iqAM8hc/eNL7rb7YprkaMf3k7jne/2pbtSyjcC39dbIsZIonDjwmd5gR6E6qelS4Mtc9O0sb7iuX+aa4lwP/S/f7P5M7VvxManr0shQTO2rEub+9/a11qzLEX5JWvTAQqsVe8fRr8iO7TCn7FOnec7/csWKu1AVtM2n/w+2BfdjJFtP3kjTOVQUx4ryYMA3n9aq8XxkaGe6t8rmUq5HoZsS3Mc6Nke6tp7+oGOY93dJw5pJcunpdYo3z/cG78/N7lHGvRraHEwwZ58nPpdwZmd4gD1R/Km2XMNDDivEbBVAABVAgmwoMwzgP3/wl291RgWrSAF7P/wAAH2JJREFUtA37IkZLhW68wtlWsXNVTNtWd5R47I1eTWiKpFA+XGM8wvBz9qdHQk5cIpud2J86TvfhZql9ZWQxRsPFKKjf2ghIax6JyKlNaoSZCaeRwc24iZ+qR0w3vW4Z5xeqnVAevgGZqohnzF/U/5mb9cVbdYx7Uy/7pEIZ6sY8TU3KX+KMuN4ta7wwHqFHxmNNETeJZMKPhz9wvVnWKFPZ2288u4GymNA4ETHXg8ain203trqKv5yQgQtuZ5RnOoTY9rbSGkfVayA/3gbBL+46s6Rir9HZfJoR+0lpWqnqNBS6RCUTzlP4d9Q63u7DOprjMWI/ojtNjOkUtR8n3Rhzyttn8EtcPYjovBmz12FStSPuco/n1vXOkxHOnAGG24j6lpNqvfxNRhssdRZ/6eMovXEuooxuVf6y2eWyQz0lYcdEv9IZOs4Vf+ZJCtUWRbD5tnoiwO/YcUqUrh2Sy1L7uOoMvUceWFktTZ0RcXOi2oTkZXcOj8D5wRwXqToOdbylPb5Tk2NJthUYTlsZxYOTH9Mexk3eGW7XTCFi2qbYtsxspwKMm5HuZbJ0fwS7etVY/kZ6PWWeHAwb6qZ9NB3ker3pr7hPpDV5x8tWpwPSO4dZRSrWr3+38m8c0/uVxmVOEWyD/KndD6csC5vmagW1rVqu0hrqlXBimofCsGgz/c5tKmCw+/LWU+Fc1OtWo7yiRmy/ExyFLiqGeVebE5P8cn+/jMo4N/HSz5x3Yqw3b8vQOL/VKCtV+JU36pwQMqnhYfql4Q2V1lx5W8VPt95125Sh7pvzurRF91GyxjkxzouOVSvDV2SHE1LFjVVu/aGCorr/ZWCc3zrdIvcpk/3pevmHFxt0/HP1O2LEecg4//DfQut5mQgZ52r5lc/lzd8d8NL/+1XH5cMrXteityVfUAAFUAAFUGD0CozCOFc7v9IuO1bO8eLKls2zHrcP33hZmfVjKZfJ3TOmedsHjJK4m9rQTWjsjaSzP3ODe49M/cUsmZ7y3urFQbeyV7xfzVMB4RHLgRIZU8A3pdJp6McNvkemzrBjTesR53H1ZO0zJX1Th3dNi6iTWaEY4lZCMV8HzlbLr9RI9SnWEwSx+bLi36r932vF6B6ucW7K4W3nZzDFsL1+XNbo+PGT750lU70R85bZGpdebFky6PTIaJSsOU4s/UxRwnkK/1brRS1ztg+nG/5tdqI+9X9jZpybpwL0cXB0tceP0xn3yG4nFJHTyWRGnsaW09dgPBlITu1o9oYyzkWS0tVQJb8yx9OUWbK8ptN93F6nEXziwWXNbRvUeSCqfS6Xev0kyZDtkMrs9W6pt+YkmDyjXHZ1mpBMIhJ1HJk6DTyN4beNNqHqe0pbZlbI5Pg26/KZOwWi6ljvLaXuhrNuIMdx7dgojHOVvn4KJt3k1yllUJ67NzfFCK6nYjUIlVGvp85dqddRs2T5/tAAh4BexfUjyjj/v/6//+IY4coMn/vONC88S5RprkqbuXGuw7Ks+K78dPX9MtN636tif9ujyUNGuRumxQqHolg4/pLMdGKG3y73rrrbijs+/BHn3fVz9fbflZ+u+p4VO903tWNHnMuHsk4Z57/9vThkpIw4N6PcU8vtarBBh60pLnbs3Jascd75eZcTamXg2vAj1attVJgWlQavfCjwV2n4nTKuD8v74UgpEjKu40acJ8/J887I9I/lvDWCYngjzhvk1T+Hyx/av/33N1flk49aZKoTm/2EfGL/x3cUQAEUQAEUyIoCozTOTR6+SUhHg46J+ZOt4s4KE7rxMuuaR6nnVUuXdU4d3YhzfyJKsxv305jEEYZgcMVx8ks/Ym4byOGSGf2NGZjODNLhM5y4wVY6gVAteoRfurjqKTf7ZqR2hOFs7WYYX009W4ZXjCFgQoVUHLZH9Q0jVIsz2l7vx5RjaWMo5IwxZc2o/qQ0VSiDfr7ssMPhhEM5GBMvrEuaUf0p2kaoNvQ6Rr+IEZbhPIV/q/1FLXPyEW4D0uxHQqZTbJqh9SLKay9K6cCw/9T7UCM8HYPcjCR3RlcqLdyQQm6YFuVK6Ml3I+o70pS191Ws3/VxNLRx7hcwefG47HjenfdgaYN9nPnrmG/uE0PWcWv+sD8zaYfs9SUpva06/v8Ui+mYNiGw6RA/oo+lDI/vIdLm7ywoMJy2MpYH82SMP5dFMGfhds38G9M2xbZlZjvzGbO9+TvqXG3O5yO9ntLnIC9ElrevUBm1ruOuY9Arr/8lLlSLbZ4rwzzONFcpZRyqxcQuX79MNv3hteB70/9w9rHSC04u7iShTriWW9K82TKm1U61sX7HbzdLtxW0YEQjzk2+tjZKwhq/mXGoFj1i/o6tesR8inGu8z8ORpb75AS/laxx/u2338p7Bw7K4eOhRyGC+kT+UtuobVUavPKjwKX9KhZ5vTzdoiYGtV5n3ck4//tOfRcTZ5zrWOjTQyPJ3XSHHnEup1ucGOdT91yydq6+pjHO9Zqf1DQ4pv+uYPSXUDr8RAEUQAEUQIGRKKBv1MzjuCqJuJvJDG7+Ot5WZomJJ64enbdCepjsaRMkfAPmGlyWgZJhPkyM8+lvd5o9BD6NUeqEWgj8Mz5/GKPwgRg9Ot5WsaytUc5RN+NGmsPuBJth08w1j3RnhLlx/4XpMDEb+5+pZlN8rGh/q+F865TNKsSL3WEQEzqjqSKCSWPaeoZ1yDSwshIsi15vSrk0XbdWSolxrstrRlObVfUx5R0LscfYcTf2e0Qc+WB+TMLBz0zWcbkpk5Q5C8J5Cv9Wu9Jxbv1QN2b/qTrG7keHAvBCpETtx0l2aHPJ7N3JWo07MV+YYXcdnb+VVbLxF5P8EAnaIF++qUqmB+K+x9f3qQ0q5EhcyCg7R0X2XbfD4fARpp2J1lWN/nYn6yxzYsPHl9m034vq0hjsmbRDEbtINrzghG7ZeFL/GdMmRGwauyj6WMrw+I5NlT+yp8Aw2sq4a4zrzbJcPcFkzSmhJpf1n11Ibdfc/Me0TbFtWajU4TZQ/a0mWvd3nPrEw2ivp6RTNjuTq5dLvX0IfqPPqeba0JznLU1CuR83P+MmB1UhW2zz3I5pHi58ppODdr+nzPH75Q+fhVNwjXAn3MmGP7nhTtQqTuzw22Vdc50TCuWZhn5/Q212z9sX9Jsu7xtBjPMjbqiZdaE5uN0R5i8NGeM82bzYGaHu5S/FOBdxy/6PssmEnvFLMi6+laxxrmrvL19+6Ywcb/sk87G/al012lxtyyuPCtw878YOf/awVJ7ulf6rV+XSn0/Lo0488UOyy0woFWecX/1UHn1axUI/IW1fXZX+q1fkk4+Oy/RnQyFYzOSgIYNdvr0kb76k1m2QR987J598dVXO//lTqVx3wDHUTYz1/jOfyi4nfrrax1Xp7+mQ51Uef82I8zzSw65RAAVQYBwrMHLjfKC1UWp1fPKBREIGuhulQt2AeSPORdwJOKfK0u2Nbozbo90yYOIEz9sqp1ScZxVruqFKHnZCVwzfOPcm7Jt4jzy8YZ8c67zsxk6va5Rj6kbwSqMsVTfBP3nBib3bq/KaSEhvZ7Psqm4Wcwkwfiq5W3Y5sX7LZPrirVLrxCVPSFf7Ptm8eJYTh3jy424YClPmaDNIzX5VJferCRRXNkqXo1u3HKsul+lKT3NDrSYi2+6a8SpUj8tEt5w6vE/qW907ccPB8nebvdjDA/tfcPIy9XkVj/iyUycOC4d3y47DcY99t8uOpatlR12zW88JXa5FqsNmkkz1Jnq0zNzZ66XWicfaKKcumvjuU2X5fsWi4va47Fju6uIbv3HGSGqoBjW5oYrtPPnB9a7WvZ3SVLNe82xGnJsRjPNlc7tb1t7ORtk4755gJ0Yag8Vo7OnV3S61m5fourCOG1Op1qdbvxFxpB1ddDxnYxZNmSNr6tqlSx2Xh3fLGp1HT5vIPOr45D98QXY0uPHTj11QdR+howppodqJu5bI5la3Dnrbd8tSx7x5QmpNHPzI/ahCxZhTVnntr0MZvM7/U8pkciCetltfk6eUpUwQqMIiTFWxvBdtlWPdbvt1quYFZ9nkx/eNv/ZEtwETvPa6W46l8N0tTTWNcsrRQ2uyXcU8L5OhRpyLtMtGp+4Nd277rOa/qN28z316KZN26EKz7GpQ3Orte9tlh2oH7RHnpoMn1CbYvAz1PbqtzPD4Hipx/s+KAhm3ldo4n3DXfFlT0+zMO6Ha5TUPqqeDpsmak9qxduY5mCSTnzdPFkW0a07OY9qmcFt2cqssWrlVdjXouS4S3XKqTl8DTbHaQNXWOSHI/KcmUs6lo72e0qFeVJs24a45svSVKtm4colMvatMJofO86c2uU+RPLBun3Wsq7xvldqzWam6gkhk58m3vbAs75x4K5AnY56nM83VNmZEukor/tUmm16+Te5YvVnsB9H89fXkn4EJNM/LH167Te5ceXswjIvayIzy/u0Gab/UL4n+S9LZ9JrMc0K3pA/VUrdejaD/mWxqapT2v9wSOaMn99xcJ939Kq3z0vreYh0GJmyc3yY/+O1LUnP0E7ns7PMleUjtc9VL0n5Ll+bjlxwj/Uebfy/NRz9xOwK+qpNlznqPyR+cbdV++uVyZ6PUvN/ohnjxxSi6byVtnKvaOtfV7Rjh/7u1Vb5O2N1ywbpU/6l1lGmutuFVAApc+lSe/o0yr/333774oew4b41CjzPO5Vs533DYizvuxDlffVwaGj7KKMa5U/qrn0ulE2td7//ZA/L0/g558zV/ctL+jz6Sf9Bx1E0+VR7fv8TTCgVAEFlAARRAgXGowCiM84Zyudu5sVImqvtWMWXr7cuei42yXMd1VutMXuQaS368WrVdmdy9oEqaatToZssAjBsNFr4JVbVyvV02e5NE6vzc5Y+gSnbuDuTDzW+ZTH+9OSXExvio5IQcs2L9mvqZ4EzkejylzNFmkFIiKcfWaVPZqWM18d5uqd+sRvHa4W+ScmrzEyEe7pHlJkxD9z5ZpGN6+yFdktJRY0x4n6EJU2bJmkAYFbtGumVXuJ5VvlS5NreHypWUU2/Pt+Ln3yPOyFMrFrGjy11zZHlNo2x+ZASTg+qsddXZ5XB5PlbnThbpjci1NHCOhXufkI2Hd0uFPfo/im2v+Ak5tTlYHlUXTdufCB433vr+F7d+LY318epyYR1z3fsCx8lklcej+1zzxozGj8ljb0NQg0V1qvMjxmDqbpTls91OA8NmSjzqmP1k2zj3wsxYoYuUcsZw98K0+HJK1/5yecCKUa/asOnLd0tH6KkDa5Mi/npZ6p2wK4Yfzffhrc6kwC7fnbIjVJ9qks6HN7dbo3TTSHDluNeJZHhQn2XzTAdfBu3Q2epQnSgjUHVUWcN1JaZNSJO18F+xbWUmx3c4MX7nSIEM20rnGmOWbN6/L9geqfj8+60LmfYqt2MsW8b5hd2y6CfB9s/lfX3w+snrVPKNc7E4M+fSUV1P6RoYOLtP1ixy45c/vHSrNPV2y6556pi3z/PqusI+B+k24a75sutCjqoyT8macC1q5Pilq18EcvGX/vjCqnXNaHOVRtqXM3r8Npm553zsam4c89vkoff8ddxJQm8Te+JQk4Afl1wZ4bfLvetfk+Z/V6PH0xnndmz02+TxejVi/Za0/uF+K675d+WhLb+Xhl1q9HrIOF+9QRoaFrtmuQ5hc+fqxdLwF5MrEfn2vNRt+K7bobDyJS9+efLPv5eVq2/3OhrcDofbZea2Rn+UvZVMMX0teeNcVdalr76Sfz/c7JjiB4+2SHtnp1z44gvnrb6rZcowV+uodXkVkgLfyq3rejT3dSv4U6ZZTF53R4LftIKyZrqtWe+m2v91uRXrhX8jt9Roc+dtmfpmez5RAAVQAAVQoIAUUI8wOyN3E7ZBEcrg9YQkw6dO9Qiy2jabZpNJMyYvfl4j8hPK8vj4mZQBNZrtsDsSM6UOMi3kdV1XaarYTUrtz113yFW9ffvbDMTUm7eq+eLUc6blUumn5sawkPqP2clwP3U50vJsyjqKvX6j0xhFEkOVzNVmZDtIRmgdtz9TB1H1E7dN4Sw3dRkMpVA4+ctuTry6SoeF1/6OUBPTzqg2JGo/5v+o/3RxvXwGQmuEtVB1lyaR8OoZ/zZM5CLtjDPBikaB4baVmq+o2lNcRS03uxrRp328xJ031DqZ7NikFZfOsDPozu8wIRxeTKVjdHXO9Zlkbtg7z/sG9qjzf978gxTzPCqDyjRX62Y22jwqhSwtu+WO3E4Mf2rG1Axc02mZkeOpawSWJNXo9ESGK1tbJhN6P/39khyBRWclVTBfMc6tqui+eEmOnDgptQcOOka5MsvVd7VM/ccLBVAABVAABVAABVAABVAABVAABVAABVAABYpCAT3Kfurm6LljiqIMo8zkC/ue8ExwNYo8HLbFTl79Z0aaK+NcbcurtBXAOC/t+qf0KIACKIACKIACKIACKIACKIACKIACKIACRa5Ab80SmTrvBanYUCUb1XulDrv2k/VyLGsj2ItTJNs8V4a4Mscf2zVbXmlc5rzVd9swxzQvznrORa4xznOhKmmiAAqgAAqgAAqgAAqgAAqgAAqgAAqgAAqgwFgpcKVddr2+RKb/YpqUqTlnZsyXpZsbpavETXMjvwrbYmKemzAsUZ9qnfSTgZoU+SwFBTDOS6GWKSMKoAAKoAAKoAAKoAAKoAAKoAAKoAAKoAAKlLgCyhSft3OGY6L/3cq/EfVWZrlahmFe4nBEFB/jPEIUFqEACqAACqAACqAACqAACqAACqAACqAACqAACqAACpSuAhjnpVv3lBwFUAAFUAAFUAAFUAAFUAAFUAAFUAAFUAAFUAAFUCBCAYzzCFFYhAIogAIogAIogAIogAIogAIogAIogAIogAIogAIoULoKYJyXbt1TchRAARRAARRAARRAARRAARRAARRAARRAARRAARRAgQgFMM4jRGERCqAACqAACqAACqAACqAACqAACqAACqAACqAACqBA6SqAcV66dU/JUQAFUAAFUAAFUAAFUAAFUAAFUAAFUAAFUAAFUAAFIhTAOI8QhUUogAIogAIogAIogAIogAIogAIogAIogAIogAIogAKlqwDGeenWPSVHARRAARRAARRAARRAARRAARRAARRAARRAARRAARSIUADjPEIUFqEACqAACqAACqAACqAACqAACqAACqAACqAACqAACpSuAhjnpVv3lBwFUAAFUAAFUAAFUAAFUAAFUAAFUAAFUAAFUAAFUCBCAYzzCFFYhAIogAIogAIogAIogAIogAIogAIogAIogAIogAIoULoKYJyXbt1TchRAARRAARRAARRAARRAARRAARRAARRAARRAARRAgQgFMM4jRGERCqAACqAACqAACqAACqAACqAACqAACqAACqAACqBA6SqAcV66dU/JUQAFUAAFUAAFUAAFUAAFUAAFUAAFUAAFUAAFUAAFIhQoSOP8+s2bcvnKFd5oAAMwAAMwAAMwAAMwAAMwAAMwAAMwAAMwAAMwAAMwMOYMFKRxnkgkhDcawAAMwAAMwAAMwAAMwAAMwAAMwAAMwAAMwAAMwAAM5IMBjHNMejopYAAGYAAGYAAGYAAGYAAGYAAGYAAGYAAGYAAGYAAGLAZKxjg/dOiQ8EYDGIABGIABGIABGIABGIABGBgfDORj5Bn7ZMQjDMAADMAADJQOAxjnGOp0KMAADMAADMAADMAADMAADMBA0TGAcVE6xgV1TV3DAAzAAAzkgwGMcy6Qi+4CmRFC42OEEPVIPcIADMAADMAADMAADIyGgXzcQLNPjBsYgAEYgAEYKB0GMM4xzjHOYQAGYAAGYAAGYAAGYAAGYKDoGMC4KB3jgrqmrmEABmAABvLBwLgwzrdt2zZk4PrRjGRgW0bCwAAMwAAMwAAMwAAMwAAMwEBhMZCPG2j2iXEDAzAAAzAAA8XJwE9/+tMh/eNw3Ra9ca5Mc4zzwrqA5YaC+oABGIABGIABGIABGIABGMg1A+GbW34Xp5FBvVFvMAADMAADY8GAMs6Ha54XtXFuTHOMcy7Kc31RTvowBgMwAAMwAAMwAAMwAAOFxcBY3GSzD8wcGIABGIABGBgfDBjjfDjmedEa57ZpjnFeWBew3FBQHzAAAzAAAzAAAzAAAzAAA7lmACNjfBgZ1CP1CAMwAAMwMBYM2MZ5puZ5URrnYdMc45yL8lxflJM+jMEADMAADMAADMAADMBAYTEwFjfZ7AMzBwZgAAZgAAbGBwNh4zwT87wojXMFbNg8HwpiLnIL6yKX+qA+YAAGYAAGYAAGYAAGYAAGRsPAUPeA/D8+jA7qkXqEARiAARjIBgNh4zyTNIvWOFeFs83zoQo7mgsytuWCHgZgAAZgAAZgAAZgAAZgAAYKi4Gh7gH5H6MFBmAABmAABmDAMGAb52bZUJ9FbZyrwhnzfKiCcpFbWBe51Af1AQMwAAMwAAMwAAMwAAMwMBoGhroH5H/MEhiAARiAARiAAcOAMc7N70w+i944V4UkxjkX3KO54GZb+IEBGIABGIABGIABGICB4mMgkxte1sEwgQEYgAEYgAEYUAxkEtM8zMq4MM7DhYr6zYVw8V0IU2fUGQzAAAzAAAzAAAzAAAzAQBwDUfd9LMMcgQEYgAEYgAEYyBYDGOeHuBCNuxBlOWzAAAzAAAzAAAzAAAzAAAwUKgPZuikmHQwWGIABGIABGICBKAYwzjHOpVAvhMkXN2kwAAMwAAMwAAMwAAMwAANxDETd4LIM4wMGYAAGYAAGYCBbDGCcY5xjnMMADMAADMAADMAADMAADMBA0TGQrZti0sFggQEYgAEYgAEYiGKgZIzzqMKzjIMCBmAABmAABmAABmAABmAABmAABmAABmAABmAABmAgzEDhGefHWiWcSX4DLgzAAAzAAAzAAAzAAAzAAAzAAAzAAAzAAAzAAAzAwFgx0HysVS5++aUkrl6Vq9euZeX9nZEkpDJwqbdXWk58LNt21chr/+tNqVi3UV7ijQYwAAMwAAMwAAMwAAMwAAMwAAMwAAMwAAMwAAMwAAM5ZkD50a/9r82ybddux6dWfnXejXNltn/d3y/dX/TIqU/OypHW49LUckyajvJGAxiAARiAARiAARiAARiAARiAARiAARiAARiAARiAgdwzcKS1zfGnlU+t/OqRDBKP22ZEI85NYsrBH0gk5Gv1HhjgjQYwAAMwAAMwAAMwAAMwAAMwAAMwAAMwAAMwAAMwAANjw0Ai4fjT2RxpbrzvURnnJhE+sxM3Bx3REQZgAAZgAAZgAAZgAAZgAAZgAAZgAAZgAAZgAAbyzwDGeZaCxQNz/mGmDqgDGIABGIABGIABGIABGIABGIABGIABGIABGICBbDCAcY5xntXYP9mAkjRo3GAABmAABmAABmAABmAABmAABmAABmAABmAABvLJAMY5xjnGOQzAAAzAAAzAAAzAAAzAAAzAAAzAAAzAAAzAAAzAgMUAxrklRj57MNg3PWgwAAMwAAMwAAMwAAMwAAMwAAMwAAMwAAMwAAMwUBgMYJxjnNOTBAMwAAMwAAMwAAMwAAMwAAMwAAMwAAMwAAMwAAMwYDGAcW6JQW9OYfTmUA/UAwzAAAzAAAzAAAzAAAzAAAzAAAzAAAzAAAzAQD4ZwDjHOKcnCQZgAAZgAAZgAAZgAAZgAAZgAAZgAAZgAAZgAAZgwGIA49wSI589GOybHjQYgAEYgAEYgAEYgAEYgAEYgAEYgAEYgAEYgAEYKAwGMM4xzulJggEYgAEYgAEYgAEYgAEYgAEYgAEYgAEYgAEYgAEYsBjAOLfEoDenMHpzqAfqAQZgAAZgAAZgAAZgAAZgAAZgAAZgAAZgAAZgIJ8MYJxjnNOTBAMwAAMwAAMwAAMwAAMwAAMwAAMwAAMwAAMwAAMwYDGAcW6Jkc8eDPZNDxoMwAAMwAAMwAAMwAAMwAAMwAAMwAAMwAAMwAAMFAYDGOcY5/QkwQAMwAAMwAAMwAAMwAAMwAAMwAAMwAAMwAAMwAAMWAxgnFti0JtTGL051AP1AAMwAAMwAAMwAAMwAAMwAAMwAAMwAAMwAAMwkE8GMM4xzulJggEYgAEYgAEYgAEYgAEYgAEYgAEYgAEYgAEYgAEYsBjAOLfEyGcPBvumBw0GYAAGYAAGYAAGYAAGYAAGYAAGYAAGYAAGYAAGCoMBjHOMc3qSYAAGYAAGYAAGYAAGYAAGYAAGYAAGYAAGYAAGYAAGLAYwzi0x6M0pjN4c6oF6gAEYgAEYgAEYgAEYgAEYgAEYgAEYgAEYgAEYyCcDGOcY5/QkwQAMwAAMwAAMwAAMwAAMwAAMwAAMwAAMwAAMwAAMWAxgnFti5LMHg33TgwYDMAADMAADMAADMAADMAADMAADMAADMAADMAADhcEAxjnGOT1JMAADMAADMAADMAADMAADMAADMAADMAADMAADMAADFgMY55YY9OYURm8O9UA9wAAMwAAMwAAMwAAMwAAMwAAMwAAMwAAMwAAM5JMBjHOMc3qSYAAGYAAGYAAGYAAGYAAGYAAGYAAGYAAGYAAGYAAGLAYwzi0x8tmDwb7pQYMBGIABGIABGIABGIABGIABGIABGIABGIABGICBwmAA4xzjnJ4kGIABGIABGIABGIABGIABGIABGIABGIABGIABGIABiwGMc0sMenMKozeHeqAeYAAGYAAGYAAGYAAGYAAGYAAGYAAGYAAGYAAG8snA/w89wxu3pHdYnwAAAABJRU5ErkJggg==;" vertex="1" parent="1">
          <mxGeometry x="210" y="567.57" width="1056" height="249.43" as="geometry" />
        </mxCell>
      </root>
    </mxGraphModel>
  </diagram>
</mxfile>
